<?xml version="1.0" encoding="UTF-8"?>
<svg width="6px" height="11px" viewBox="0 0 6 11" version="1.1" xmlns="http://www.w3.org/2000/svg" xmlns:xlink="http://www.w3.org/1999/xlink">
    <!-- Generator: Sketch 48.2 (47327) - http://www.bohemiancoding.com/sketch -->
    <title>Combined Shape</title>
    <desc>Created with Sketch.</desc>
    <defs></defs>
    <g id="1-23个人中心" stroke="none" stroke-width="1" fill="none" fill-rule="evenodd" transform="translate(-352.000000, -495.000000)">
        <g id="fanhui-copy-7" transform="translate(355.000000, 500.500000) scale(-1, 1) translate(-355.000000, -500.500000) translate(352.000000, 495.000000)" fill="#C1C1C1">
            <path d="M1.67235279,5.40534298 L5.50269866,9.43042095 C5.76069838,9.7015372 5.755729,10.1354398 5.48609707,10.4050718 L5.60507176,10.2860971 C5.33790323,10.5532656 4.91661342,10.5547344 4.65417052,10.2789491 L0.526444576,5.94137245 C0.438836666,5.84931062 0.38155041,5.7384787 0.354652112,5.62168218 C0.241067251,5.39204747 0.279200767,5.10592317 0.4706592,4.91288826 L4.68785017,0.6609729 C4.92724913,0.419602718 5.31812252,0.420735705 5.55552729,0.658140474 L5.53564153,0.638254714 C5.77544741,0.87806059 5.77675277,1.26714733 5.5363783,1.50950104 L1.67235279,5.40534298 Z" id="Combined-Shape"></path>
        </g>
    </g>
</svg>