<?xml version="1.0" encoding="UTF-8"?>
<svg width="14px" height="14px" viewBox="0 0 14 14" version="1.1" xmlns="http://www.w3.org/2000/svg" xmlns:xlink="http://www.w3.org/1999/xlink">
    <!-- Generator: Sketch 48.2 (47327) - http://www.bohemiancoding.com/sketch -->
    <title>Combined Shape</title>
    <desc>Created with Sketch.</desc>
    <defs></defs>
    <g id="1-26下载删除" stroke="none" stroke-width="1" fill="none" fill-rule="evenodd" transform="translate(-16.000000, -81.000000)">
        <g id="Group-2" transform="translate(15.000000, 80.000000)" fill="#4FCE74">
            <path d="M2,1 L14,1 C14.5522847,1 15,1.44771525 15,2 L15,14 C15,14.5522847 14.5522847,15 14,15 L2,15 C1.44771525,15 1,14.5522847 1,14 L1,2 C1,1.44771525 1.44771525,1 2,1 Z M11.380559,5.64705933 C11.5754828,5.45145937 11.8920648,5.4509112 12.0876648,5.64583495 C12.2832647,5.8407587 12.2838129,6.15734071 12.0888891,6.35294067 L6.93410724,11.5256049 L3.64909815,8.28932279 C3.4523825,8.09552505 3.45001707,7.7789514 3.64381481,7.58223575 C3.83761255,7.3855201 4.1541862,7.38315467 4.35090185,7.57695241 L6.92761809,10.1154479 L11.380559,5.64705933 Z" id="Combined-Shape"></path>
        </g>
    </g>
</svg>