<?xml version="1.0" encoding="UTF-8"?>
<svg width="20px" height="20px" viewBox="0 0 20 20" version="1.1" xmlns="http://www.w3.org/2000/svg" xmlns:xlink="http://www.w3.org/1999/xlink">
    <!-- Generator: Sketch 48.2 (47327) - http://www.bohemiancoding.com/sketch -->
    <title>Star Copy 6</title>
    <desc>Created with Sketch.</desc>
    <defs></defs>
    <g id="1-15课程详情" stroke="none" stroke-width="1" fill="none" fill-rule="evenodd" transform="translate(-19.000000, -632.000000)">
        <path d="M29,647.636513 L34.2488126,650.532554 L33.2466958,644.400582 L37.4806199,640.069262 L31.6284055,639.176797 L29,633.587475 L26.3715945,639.176797 L20.5193801,640.069262 L24.7533042,644.400582 L23.7511874,650.532554 L29,647.636513 Z M23.0917697,651.467446 L24.2190882,644.569363 L19.4806199,639.721893 L26.032604,638.722713 L29,632.412525 L31.967396,638.722713 L38.5193801,639.721893 L33.7809118,644.569363 L34.9082303,651.467446 L29,648.207571 L23.0917697,651.467446 Z M26.1644099,638.702612 L25.9758655,638.843368 L26.032604,638.722713 L26.1644099,638.702612 Z M24.3074209,644.659728 L24.2394692,644.444651 L24.2190882,644.569363 L24.3074209,644.659728 Z" id="Star-Copy-6" fill="#898989" fill-rule="nonzero"></path>
    </g>
</svg>