<?xml version="1.0" encoding="UTF-8"?>
<svg width="24px" height="19px" viewBox="0 0 24 19" version="1.1" xmlns="http://www.w3.org/2000/svg" xmlns:xlink="http://www.w3.org/1999/xlink">
    <!-- Generator: Sketch 48.2 (47327) - http://www.bohemiancoding.com/sketch -->
    <title>Combined Shape</title>
    <desc>Created with Sketch.</desc>
    <defs></defs>
    <g id="1-1-首页" stroke="none" stroke-width="1" fill="none" fill-rule="evenodd" transform="translate(-130.000000, -1382.000000)">
        <g id="Group-5" transform="translate(0.000000, 1372.000000)" fill="#7382FC" fill-rule="nonzero">
            <g id="课程" transform="translate(130.000000, 10.000000)">
                <path d="M11.2399796,17.6142262 L2.28571429,17.6142262 C1.02857142,17.6142262 0,16.5780952 0,15.311713 L0,2.30251324 C0,1.03613095 1.02857142,0 2.28571429,0 L9.17142856,0 C10.7142857,0 11.2,0.179246322 12,1.56075425 C12.8571429,0.179246322 13.2857143,0 14.8857143,0 L21.7142857,0 C22.9714286,0 24,1.03613096 24,2.30251324 L24,15.311713 C24,16.5780953 22.9714286,17.6142262 21.7142857,17.6142262 L13.7600226,17.6142262 C13.492786,18.0269481 13.028286,18.3000488 12.5,18.3000488 C11.971714,18.3000488 11.507214,18.0269481 11.2399796,17.6142262 Z M3,7.5 L10,7.5 C10.2761424,7.5 10.5,7.27614237 10.5,7 C10.5,6.72385763 10.2761424,6.5 10,6.5 L3,6.5 C2.72385763,6.5 2.5,6.72385763 2.5,7 C2.5,7.27614237 2.72385763,7.5 3,7.5 Z M3,11.5 L10,11.5 C10.2761424,11.5 10.5,11.2761424 10.5,11 C10.5,10.7238576 10.2761424,10.5 10,10.5 L3,10.5 C2.72385763,10.5 2.5,10.7238576 2.5,11 C2.5,11.2761424 2.72385763,11.5 3,11.5 Z M14,7.5 L21,7.5 C21.2761424,7.5 21.5,7.27614237 21.5,7 C21.5,6.72385763 21.2761424,6.5 21,6.5 L14,6.5 C13.7238576,6.5 13.5,6.72385763 13.5,7 C13.5,7.27614237 13.7238576,7.5 14,7.5 Z M14,11.5 L21,11.5 C21.2761424,11.5 21.5,11.2761424 21.5,11 C21.5,10.7238576 21.2761424,10.5 21,10.5 L14,10.5 C13.7238576,10.5 13.5,10.7238576 13.5,11 C13.5,11.2761424 13.7238576,11.5 14,11.5 Z" id="Combined-Shape"></path>
            </g>
        </g>
    </g>
</svg>