<?xml version="1.0" encoding="UTF-8"?>
<svg width="18px" height="18px" viewBox="0 0 18 18" version="1.1" xmlns="http://www.w3.org/2000/svg" xmlns:xlink="http://www.w3.org/1999/xlink">
    <!-- Generator: Sketch 48.2 (47327) - http://www.bohemiancoding.com/sketch -->
    <title>Shape</title>
    <desc>Created with Sketch.</desc>
    <defs></defs>
    <g id="1-15课程详情" stroke="none" stroke-width="1" fill="none" fill-rule="evenodd" transform="translate(-114.000000, -633.000000)">
        <g id="下载-(1)-copy-3" transform="translate(114.000000, 633.000000)" fill="#898989" fill-rule="nonzero">
            <path d="M11.370399,9.83795987 L11.370399,1.44799331 L6.62336915,1.44799331 L6.62336915,9.83996656 L4.13117566,9.83996656 L8.99680258,13.8230491 L13.8608096,9.83795987 L11.370399,9.83795987 Z M14.2945216,9.33795987 C14.5150895,9.33795987 14.6938951,9.4946602 14.6938951,9.68795987 C14.6938951,9.78487302 14.6480433,9.87744806 14.5672622,9.9436321 L8.99696554,14.5073857 L3.42457958,9.94573853 C3.26339363,9.81378905 3.2547822,9.59230984 3.40534541,9.45105088 C3.48087169,9.38019186 3.58655602,9.33996656 3.69719839,9.33996656 L6.0528356,9.33996656 L6.0528356,1.39799331 C6.0528356,1.14946517 6.28272852,0.947993311 6.5663158,0.947993311 L11.4274523,0.947993311 C11.7110396,0.947993311 11.9409325,1.14946517 11.9409325,1.39799331 L11.9409325,9.33795987 L14.2945216,9.33795987 Z M1.21852979,17.1968449 C1.0609813,17.1968449 0.933263017,17.0849161 0.933263017,16.9468449 C0.933263017,16.8087737 1.0609813,16.6968449 1.21852979,16.6968449 L16.8079961,16.6968449 C16.9655446,16.6968449 17.0932629,16.8087737 17.0932629,16.9468449 C17.0932629,17.0849161 16.9655446,17.1968449 16.8079961,17.1968449 L1.21852979,17.1968449 Z" id="Shape"></path>
        </g>
    </g>
</svg>