<?xml version="1.0" encoding="UTF-8"?>
<svg width="14px" height="15px" viewBox="0 0 14 15" version="1.1" xmlns="http://www.w3.org/2000/svg" xmlns:xlink="http://www.w3.org/1999/xlink">
    <!-- Generator: Sketch 48.2 (47327) - http://www.bohemiancoding.com/sketch -->
    <title>Shape</title>
    <desc>Created with Sketch.</desc>
    <defs></defs>
    <g id="1-3任务详情" stroke="none" stroke-width="1" fill="none" fill-rule="evenodd" transform="translate(-16.000000, -137.000000)">
        <g id="日期" transform="translate(16.000000, 136.000000)" fill="#C1C1C1" fill-rule="nonzero">
            <path d="M3.00986074,8.40392501 L3.00986074,6.35656197 L5.00924509,6.35656197 L5.00924509,8.40392501 L3.00986074,8.40392501 Z M6.03101163,6.35656197 L6.03101163,8.40392501 L8.03039598,8.40392501 L8.03039598,6.35656197 L6.03101163,6.35656197 Z M9.0521625,6.35656197 L9.0521625,8.40392501 L11.0515308,8.40392501 L11.0515308,6.35656197 L9.0521625,6.35656197 Z M3.00986074,10.3461117 L3.00986074,12.3926895 L5.00924509,12.3926895 L5.00924509,10.3461117 L3.00986074,10.3461117 Z M8.03039598,10.3461117 L6.03101163,10.3461117 L6.03101163,12.3926895 L8.03039598,12.3926895 L8.03039598,10.3461117 Z M9.0521625,10.3461117 L9.0521625,12.3926895 L11.0515308,12.3926895 L11.0515308,10.3461117 L9.0521625,10.3461117 Z M11.7962581,3.22462598 C11.7962581,3.5732006 11.519972,3.85632933 11.1793939,3.85632933 C10.8388157,3.85632933 10.5625296,3.5732006 10.5625296,3.22462598 L10.5625296,1.6354642 C10.5625296,1.28688958 10.8384311,1.00453005 11.1793939,1.00453005 C11.519972,1.00453005 11.7962581,1.28688958 11.7962581,1.6354642 L11.7962581,3.22462598 Z M3.46309426,1.63280406 C3.46309426,1.28422944 3.18682421,1.00148532 2.84584541,1.00148532 C2.50526726,1.00148532 2.22899719,1.28422946 2.22899719,1.63280406 L2.22899719,3.22158123 C2.22899719,3.57052442 2.50525122,3.85328458 2.84584541,3.85328458 C3.1868242,3.85328458 3.46309426,3.57052442 3.46309426,3.22158123 L3.46309426,1.63280406 Z M12.5417386,3.20179043 C12.5417386,3.97087562 11.9305792,4.59612091 11.1793939,4.59612091 C10.4281925,4.59612091 9.81703316,3.97087562 9.81703316,3.20179043 L9.81703316,2.55486338 L4.20857473,2.55486338 L4.20857473,3.19874568 C4.20857473,3.96744628 3.5974314,4.59344474 2.84584544,4.59344474 C2.09502868,4.59344474 1.48390137,3.96744628 1.48390137,3.19874568 L1.48390137,2.55486338 L0.333365684,2.55486338 L0.333365684,15.0298506 L13.6474122,15.0298506 L13.6474122,2.55486338 L12.5417386,2.55486338 L12.5417386,3.20179043 Z M12.6315584,13.9872144 L1.36211176,13.9872144 L1.36211176,4.90898058 L12.6315584,4.90898058 L12.6315584,13.9872144 Z" id="Shape"></path>
        </g>
    </g>
</svg>