<?xml version="1.0" encoding="UTF-8"?>
<svg width="17px" height="22px" viewBox="0 0 17 22" version="1.1" xmlns="http://www.w3.org/2000/svg" xmlns:xlink="http://www.w3.org/1999/xlink">
    <!-- Generator: Sketch 48.2 (47327) - http://www.bohemiancoding.com/sketch -->
    <title>Shape</title>
    <desc>Created with Sketch.</desc>
    <defs></defs>
    <g id="1-28我的收藏" stroke="none" stroke-width="1" fill="none" fill-rule="evenodd" transform="translate(-343.000000, -30.000000)">
        <g id="Group-7" transform="translate(343.000000, 30.000000)" fill="#898989" fill-rule="nonzero">
            <path d="M3.55531355,20.3463145 C3.55473918,20.3414579 3.55411029,20.3386201 3.55422377,20.3369786 L3.55531355,20.3463145 Z M13.2792629,20.3348095 C13.2812844,20.3348095 13.7884491,16.0028184 14.8007569,7.33883612 C14.8006222,7.33884808 10.5462323,7.33885701 2.03758723,7.33886292 C2.03743129,7.33886292 2.5429768,11.6715682 3.55422377,20.3369786 L13.2792629,20.3348095 Z M13.2792629,21.8348095 L3.55842178,21.8348095 C2.79871876,21.8348095 2.15454339,21.2737249 2.06556274,20.5213608 L0.544531638,7.49119444 C0.443089338,6.60460523 1.14402306,5.83886292 2.03758723,5.83886292 L14.8000974,5.83886292 C15.6919669,5.83886292 16.3945552,6.60495633 16.2929565,7.49289505 L14.7719892,20.5224904 C14.6831413,21.2737249 14.0389659,21.8348095 13.2792629,21.8348095 Z M1.59383688,4.78398283 C1.17962331,4.78398283 0.843836875,4.44819639 0.843836875,4.03398283 C0.843836875,3.61976927 1.17962331,3.28398283 1.59383688,3.28398283 L15.2438478,3.28398283 C15.6580614,3.28398283 15.9938478,3.61976927 15.9938478,4.03398283 C15.9938478,4.44819639 15.6580614,4.78398283 15.2438478,4.78398283 L1.59383688,4.78398283 Z M5.11018492,2.32463127 C4.69597136,2.32463127 4.36018492,1.98884483 4.36018492,1.57463127 C4.36018492,1.16041771 4.69597136,0.824631271 5.11018492,0.824631271 L11.7274998,0.824631271 C12.1417133,0.824631271 12.4774998,1.16041771 12.4774998,1.57463127 C12.4774998,1.98884483 12.1417133,2.32463127 11.7274998,2.32463127 L5.11018492,2.32463127 Z M5.50634061,10.4418982 C5.50634061,10.0276847 5.84212704,9.69189823 6.25634061,9.69189823 C6.67055417,9.69189823 7.00634061,10.0276847 7.00634061,10.4418982 L7.00634061,17.2338067 C7.00634061,17.6480203 6.67055417,17.9838067 6.25634061,17.9838067 C5.84212704,17.9838067 5.50634061,17.6480203 5.50634061,17.2338067 L5.50634061,10.4418982 Z M9.83134406,10.4418982 C9.83134406,10.0276847 10.1671305,9.69189823 10.5813441,9.69189823 C10.9955576,9.69189823 11.3313441,10.0276847 11.3313441,10.4418982 L11.3313441,17.2338067 C11.3313441,17.6480203 10.9955576,17.9838067 10.5813441,17.9838067 C10.1671305,17.9838067 9.83134406,17.6480203 9.83134406,17.2338067 L9.83134406,10.4418982 Z" id="Shape"></path>
        </g>
    </g>
</svg>