<?xml version="1.0" encoding="UTF-8"?>
<svg width="20px" height="20px" viewBox="0 0 20 20" version="1.1" xmlns="http://www.w3.org/2000/svg" xmlns:xlink="http://www.w3.org/1999/xlink">
    <!-- Generator: Sketch 48.2 (47327) - http://www.bohemiancoding.com/sketch -->
    <title>下载</title>
    <desc>Created with Sketch.</desc>
    <defs></defs>
    <g id="1-25下载" stroke="none" stroke-width="1" fill="none" fill-rule="evenodd" transform="translate(-340.000000, -87.000000)">
        <g id="下载" transform="translate(340.000000, 87.000000)" fill="#7382FC" fill-rule="nonzero">
            <path d="M10,19.5 C4.75329488,19.5 0.5,15.2467051 0.5,10 C0.5,4.75329488 4.75329488,0.5 10,0.5 C15.2467051,0.5 19.5,4.75329488 19.5,10 C19.5,15.2467051 15.2467051,19.5 10,19.5 Z M10,18.5 C14.6944204,18.5 18.5,14.6944204 18.5,10 C18.5,5.30557963 14.6944204,1.5 10,1.5 C5.30557963,1.5 1.5,5.30557963 1.5,10 C1.5,14.6944204 5.30557963,18.5 10,18.5 Z" id="Oval-6" opacity="0.3"></path>
            <path d="M19.5,10 L18.5,10 C18.5,5.30557963 14.6944204,1.5 10,1.5 L10,0.5 C15.2467051,0.5 19.5,4.75329488 19.5,10 Z M8,7 L12,7 C12.5522847,7 13,7.44771525 13,8 L13,12 C13,12.5522847 12.5522847,13 12,13 L8,13 C7.44771525,13 7,12.5522847 7,12 L7,8 C7,7.44771525 7.44771525,7 8,7 Z" id="Combined-Shape"></path>
        </g>
    </g>
</svg>