<?xml version="1.0" encoding="UTF-8"?>
<svg width="22px" height="22px" viewBox="0 0 22 22" version="1.1" xmlns="http://www.w3.org/2000/svg" xmlns:xlink="http://www.w3.org/1999/xlink">
    <!-- Generator: Sketch 48.2 (47327) - http://www.bohemiancoding.com/sketch -->
    <title>Oval 6</title>
    <desc>Created with Sketch.</desc>
    <defs></defs>
    <g id="1-25下载" stroke="none" stroke-width="1" fill="none" fill-rule="evenodd" transform="translate(-340.000000, -217.000000)">
        <g id="下载-copy-2" transform="translate(340.000000, 217.000000)" fill="#4FCE74" fill-rule="nonzero">
            <path d="M11,21.5 C5.20101013,21.5 0.5,16.7989899 0.5,11 C0.5,5.20101013 5.20101013,0.5 11,0.5 C16.7989899,0.5 21.5,5.20101013 21.5,11 C21.5,16.7989899 16.7989899,21.5 11,21.5 Z M11,20.5 C16.2467051,20.5 20.5,16.2467051 20.5,11 C20.5,5.75329488 16.2467051,1.5 11,1.5 C5.75329488,1.5 1.5,5.75329488 1.5,11 C1.5,16.2467051 5.75329488,20.5 11,20.5 Z M9.80882505,13.4288397 L14.7955284,8.42483711 C14.9904521,8.22923715 15.3070341,8.22868898 15.5026341,8.42361273 C15.6982341,8.61853648 15.6987822,8.93511849 15.5038585,9.13071845 L9.8153142,14.8389967 L6.2046537,11.2818936 C6.00793805,11.0880959 6.00557262,10.7715222 6.19937036,10.5748066 C6.39316811,10.3780909 6.70974176,10.3757255 6.90645741,10.5695233 L9.80882505,13.4288397 Z" id="Oval-6"></path>
        </g>
    </g>
</svg>