<?xml version="1.0" encoding="UTF-8"?>
<svg width="22px" height="22px" viewBox="0 0 22 22" version="1.1" xmlns="http://www.w3.org/2000/svg" xmlns:xlink="http://www.w3.org/1999/xlink">
    <!-- Generator: Sketch 48.2 (47327) - http://www.bohemiancoding.com/sketch -->
    <title>Oval 6</title>
    <desc>Created with Sketch.</desc>
    <defs></defs>
    <g id="1-25下载" stroke="none" stroke-width="1" fill="none" fill-rule="evenodd" transform="translate(-340.000000, -152.000000)">
        <g id="下载-copy" transform="translate(340.000000, 152.000000)" fill="#C1C1C1" fill-rule="nonzero">
            <path d="M11,21.5 C5.20101013,21.5 0.5,16.7989899 0.5,11 C0.5,5.20101013 5.20101013,0.5 11,0.5 C16.7989899,0.5 21.5,5.20101013 21.5,11 C21.5,16.7989899 16.7989899,21.5 11,21.5 Z M11,20.5 C16.2467051,20.5 20.5,16.2467051 20.5,11 C20.5,5.75329488 16.2467051,1.5 11,1.5 C5.75329488,1.5 1.5,5.75329488 1.5,11 C1.5,16.2467051 5.75329488,20.5 11,20.5 Z M11.0246861,16.995 C11.1494509,16.9937808 11.2689035,16.9443274 11.3580195,16.857 C11.3720655,16.8389566 11.3847664,16.8199053 11.3960195,16.8 L15.8576861,12.338 C15.9863041,12.2147609 16.0382049,12.0315939 15.9933548,11.8592021 C15.9485046,11.6868104 15.8139192,11.5521604 15.641549,11.5072276 C15.4691788,11.4622948 15.2859869,11.5141079 15.1626861,11.6426667 L11.5003528,15.3043333 L11.5003528,5.5 C11.5003528,5.22385763 11.2764952,5 11.0003528,5 C10.7242104,5 10.5003528,5.22385763 10.5003528,5.5 L10.5003528,15.3043333 L6.83935279,11.6426667 C6.71514346,11.5184573 6.5341044,11.469948 6.36443129,11.5154118 C6.19475817,11.5608756 6.06222838,11.6934054 6.01676461,11.8630785 C5.97130084,12.0327516 6.01981012,12.2137907 6.14401946,12.338 L10.6060195,16.8 C10.6171736,16.8198898 10.6297625,16.8389403 10.6436861,16.857 C10.7328216,16.944298 10.8522617,16.9937462 10.9770195,16.995 C11.0090195,17 11.0160195,16.9953333 11.0246861,16.995 Z" id="Oval-6"></path>
        </g>
    </g>
</svg>