<?xml version="1.0" encoding="UTF-8"?>
<svg width="53px" height="53px" viewBox="0 0 53 53" version="1.1" xmlns="http://www.w3.org/2000/svg" xmlns:xlink="http://www.w3.org/1999/xlink">
    <!-- Generator: Sketch 51.3 (57544) - http://www.bohemiancoding.com/sketch -->
    <title>Group 2 Copy 2</title>
    <desc>Created with Sketch.</desc>
    <defs></defs>
    <g id="Page-1" stroke="none" stroke-width="1" fill="none" fill-rule="evenodd">
        <g id="1-27我的考试-copy" transform="translate(-307.000000, -290.000000)">
            <g id="Group-3-Copy-2" transform="translate(18.000000, 226.000000)">
                <g id="Group-2" transform="translate(282.000000, 58.000000)">
                    <g id="Group-2-Copy-2" transform="translate(33.130037, 32.821020) rotate(-18.000000) translate(-33.130037, -32.821020) translate(7.130037, 6.821020)">
                        <path d="M26,50 C39.254834,50 50,39.254834 50,26 C50,12.745166 39.254834,2 26,2 C12.745166,2 2,12.745166 2,26 C2,39.254834 12.745166,50 26,50 Z M26,52 C11.6405965,52 -1.42996726e-13,40.3594035 -1.42996726e-13,26 C-1.42996726e-13,11.6405965 11.6405965,-1.95399252e-14 26,-1.95399252e-14 C40.3594035,-1.95399252e-14 52,11.6405965 52,26 C52,40.3594035 40.3594035,52 26,52 Z" id="Oval-3" fill="#FBBFBF" fill-rule="nonzero"></path>
                        <path d="M26,46.5 C25.7238576,46.5 25.5,46.2761424 25.5,46 C25.5,45.7238576 25.7238576,45.5 26,45.5 C26.3262472,45.5 26.6515206,45.4919926 26.9756334,45.476029 C27.2514415,45.4624446 27.4860404,45.6750189 27.4996248,45.9508269 C27.5132092,46.226635 27.3006349,46.4612339 27.0248268,46.4748183 C26.6843306,46.4915888 26.3426544,46.5 26,46.5 Z M29.066624,46.272101 C28.793538,46.3130725 28.5389441,46.1249066 28.4979726,45.8518206 C28.4570011,45.5787347 28.645167,45.3241408 28.918253,45.2831692 C29.2402181,45.2348643 29.560405,45.178568 29.8785956,45.114361 C30.149282,45.0597397 30.4129959,45.2348952 30.4676172,45.5055816 C30.5222384,45.776268 30.347083,46.0399819 30.0763966,46.0946032 C29.7418134,46.162118 29.4051448,46.2213122 29.066624,46.272101 Z M32.0817776,45.5826615 C31.8180358,45.6644837 31.5379009,45.5170087 31.4560787,45.2532669 C31.3742565,44.9895251 31.5217315,44.7093901 31.7854734,44.627568 C32.095839,44.5312814 32.4035213,44.4272527 32.7082785,44.3155991 C32.967567,44.2206039 33.2547707,44.3537899 33.3497659,44.6130784 C33.4447611,44.8723669 33.3115751,45.1595706 33.0522866,45.2545658 C32.7317775,45.3719903 32.4081892,45.481397 32.0817776,45.5826615 Z M34.9359759,44.4549612 C34.6875215,44.5754811 34.3884088,44.4717697 34.2678889,44.2233154 C34.147369,43.974861 34.2510804,43.6757483 34.4995347,43.5552284 C34.7921595,43.4132824 35.0811342,43.2640238 35.3662043,43.107611 C35.6082993,42.9747779 35.9122386,43.0633521 36.0450717,43.3054471 C36.1779048,43.547542 36.0893306,43.8514813 35.8472356,43.9843144 C35.547507,44.14877 35.2436645,44.305708 34.9359759,44.4549612 Z M37.6141646,42.8948931 C37.386741,43.0515236 37.0754037,42.9941345 36.9187732,42.7667109 C36.7621426,42.5392873 36.8195318,42.2279499 37.0469554,42.0713194 C37.3146077,41.8869827 37.5776398,41.6959867 37.8358007,41.4985294 C38.05514,41.330765 38.3689495,41.3725749 38.5367138,41.5919142 C38.7044781,41.8112536 38.6626683,42.1250631 38.4433289,42.2928274 C38.1719791,42.5003726 37.8955033,42.7011304 37.6141646,42.8948931 Z M40.0385019,40.9389734 C39.8373047,41.1281143 39.5208731,41.1183408 39.3317322,40.9171436 C39.1425912,40.7159464 39.1523648,40.3995148 39.353562,40.2103739 C39.5904098,39.9877186 39.8216988,39.7592026 40.0471963,39.5250563 C40.2387505,39.3261553 40.5552769,39.3201994 40.754178,39.5117536 C40.953079,39.7033077 40.9590348,40.0198342 40.7674807,40.2187352 C40.5304929,40.4648124 40.2874188,40.7049722 40.0385019,40.9389734 Z M42.0815453,38.7148327 C41.9101393,38.9313381 41.5956749,38.9678983 41.3791696,38.7964923 C41.1626642,38.6250862 41.126104,38.3106219 41.29751,38.0941165 C41.4993263,37.8391995 41.6947623,37.5793027 41.8836159,37.314676 C42.0440273,37.0899033 42.3562808,37.0377281 42.5810536,37.1981395 C42.8058263,37.3585509 42.8580015,37.6708044 42.69759,37.8955772 C42.4990855,38.1737271 42.2936665,38.4468995 42.0815453,38.7148327 Z M43.8149361,36.1498281 C43.6780202,36.3896377 43.3726238,36.4730496 43.1328142,36.3361337 C42.8930046,36.1992179 42.8095927,35.8938215 42.9465086,35.6540119 C43.1076661,35.3717428 43.2617433,35.0854622 43.4085775,34.7954251 C43.5333043,34.5490559 43.8341372,34.4504452 44.0805065,34.5751721 C44.3268757,34.6998989 44.4254864,35.0007318 44.3007595,35.2471011 C44.1463723,35.5520575 43.9843739,35.8530558 43.8149361,36.1498281 Z M45.1441919,33.3464994 C45.0452051,33.6042905 44.7559796,33.7330268 44.4981885,33.63404 C44.2403975,33.5350532 44.1116611,33.2458277 44.2106479,32.9880366 C44.3270619,32.6848599 44.4358836,32.3786569 44.5369913,32.0696716 C44.622871,31.807223 44.9052469,31.6640856 45.1676955,31.7499653 C45.4301442,31.835845 45.5732815,32.118221 45.4874018,32.3806696 C45.3810675,32.7056274 45.2666213,33.0276568 45.1441919,33.3464994 Z M46.0343898,30.3640856 C45.9758718,30.6339564 45.70966,30.8052917 45.4397892,30.7467737 C45.1699184,30.6882557 44.9985831,30.4220439 45.0571011,30.1521731 C45.1258848,29.8349594 45.1867758,29.5156647 45.2396901,29.1945094 C45.2845826,28.9220406 45.5418549,28.7375536 45.8143237,28.7824462 C46.0867926,28.8273388 46.2712796,29.084611 46.226387,29.3570799 C46.1707487,29.694768 46.1067202,30.0305152 46.0343898,30.3640856 Z M46.461277,27.270149 C46.4444223,27.5457765 46.2073186,27.7555533 45.9316911,27.7386986 C45.6560636,27.7218438 45.4462868,27.4847401 45.4631415,27.2091126 C45.4829388,26.8853647 45.4947831,26.560395 45.498621,26.2343926 C45.5018716,25.9582694 45.728349,25.7370625 46.0044722,25.7403132 C46.2805954,25.7435638 46.5018024,25.9700412 46.4985517,26.2461644 C46.4945203,26.5886032 46.4820773,26.9299994 46.461277,27.270149 Z M46.4199881,24.176641 C46.4442402,24.4517163 46.2409078,24.6943692 45.9658325,24.7186213 C45.6907571,24.7428735 45.4481043,24.5395411 45.4238521,24.2644657 C45.395234,23.9398695 45.3585892,23.6167107 45.3139858,23.2951953 C45.2760402,23.0216725 45.4670134,22.7691775 45.7405363,22.731232 C46.0140591,22.6932864 46.2665541,22.8842596 46.3044996,23.1577824 C46.3513885,23.4957714 46.3899081,23.8354647 46.4199881,24.176641 Z M45.9188881,21.1339732 C45.9842109,21.4022781 45.8196613,21.6727368 45.5513563,21.7380596 C45.2830514,21.8033823 45.0125927,21.6388327 44.9472699,21.3705278 C44.8702838,21.0543172 44.785414,20.7404158 44.6927624,20.4290575 C44.6140031,20.1643849 44.7647157,19.8859784 45.0293883,19.8072191 C45.2940609,19.7284599 45.5724674,19.8791724 45.6512267,20.143845 C45.7486678,20.4712985 45.8379242,20.8014242 45.9188881,21.1339732 Z M44.9531673,18.1742491 C45.0586528,18.4294498 44.9372847,18.7218438 44.6820839,18.8273293 C44.4268832,18.9328148 44.1344892,18.8114467 44.0290037,18.556246 C43.9048884,18.2559742 43.7732747,17.9589613 43.6343046,17.665458 C43.5161318,17.4158787 43.6226579,17.1177568 43.8722372,16.9995841 C44.1218165,16.8814114 44.4199384,16.9879375 44.5381111,17.2375168 C44.6842456,17.5461509 44.8226476,17.8584832 44.9531673,18.1742491 Z M43.5783222,15.4465195 C43.7206796,15.6831394 43.6442647,15.9903612 43.4076448,16.1327186 C43.1710249,16.275076 42.8638031,16.1986611 42.7214457,15.9620412 C42.5539392,15.6836195 42.3794936,15.409422 42.198291,15.1397029 C42.0442981,14.9104851 42.1052799,14.5998314 42.3344976,14.4458385 C42.5637154,14.2918456 42.8743691,14.3528274 43.028362,14.5820451 C43.2188441,14.8655769 43.4022281,15.1538239 43.5783222,15.4465195 Z M41.7787616,12.9117557 C41.9551736,13.1242019 41.9259621,13.4394339 41.7135159,13.6158459 C41.5010697,13.792258 41.1858378,13.7630465 41.0094257,13.5506003 C40.8017414,13.3004941 40.5878534,13.0555751 40.3679803,12.8160854 C40.1812268,12.6126702 40.1947338,12.296376 40.398149,12.1096225 C40.6015642,11.922869 40.9178584,11.936376 41.1046119,12.1397912 C41.3356931,12.3914889 41.560486,12.6488948 41.7787616,12.9117557 Z M39.6030061,10.6632051 C39.8095309,10.8465139 39.8283511,11.1625365 39.6450422,11.3690613 C39.4617334,11.5755861 39.1457108,11.5944063 38.9391861,11.4110974 C38.6960466,11.1952898 38.4475803,10.9855601 38.1940313,10.7821233 C37.9786482,10.6093091 37.9441393,10.294613 38.1169535,10.0792299 C38.2897677,9.86384687 38.6044637,9.82933796 38.8198468,10.0021521 C39.0863309,10.2159676 39.3474692,10.4363937 39.6030061,10.6632051 Z M37.2236912,8.84272246 C37.4546428,8.99410278 37.519148,9.30404399 37.3677677,9.53499552 C37.2163873,9.76594705 36.9064461,9.83045226 36.6754946,9.67907193 C36.4036578,9.50089282 36.1274131,9.32952691 35.8470151,9.16515356 C35.6087885,9.02550162 35.5288779,8.71917048 35.6685298,8.48094381 C35.8081817,8.24271714 36.1145129,8.16280652 36.3527395,8.30245846 C36.6475203,8.47526319 36.9379266,8.6554141 37.2236912,8.84272246 Z M34.5102581,7.34456155 C34.7614254,7.45932034 34.8720064,7.75596208 34.7572476,8.00712942 C34.6424888,8.25829675 34.3458471,8.36887772 34.0946797,8.25411892 C33.7991563,8.11909375 33.5002075,7.99147899 33.1980835,7.87141293 C32.9414629,7.76943021 32.8161042,7.47872478 32.9180869,7.22210417 C33.0200696,6.96548356 33.310775,6.84012479 33.5673956,6.94210751 C33.8851163,7.06837179 34.1994918,7.20257187 34.5102581,7.34456155 Z M31.591888,6.27207653 C31.8576017,6.34724852 32.0120663,6.62359099 31.9368943,6.88930471 C31.8617223,7.15501844 31.5853798,7.30948303 31.3196661,7.23431104 C31.007265,7.14593092 30.6924069,7.06534984 30.3753231,6.99266631 C30.1061617,6.93096777 29.9379797,6.66275272 29.9996783,6.39359125 C30.0613768,6.12442977 30.3295919,5.95624783 30.5987533,6.01794638 C30.9322141,6.09438394 31.2633411,6.17912868 31.591888,6.27207653 Z M28.5351317,5.65526065 C28.8091964,5.68907066 29.0039614,5.93865247 28.9701514,6.21271724 C28.9363414,6.486782 28.6867596,6.68154696 28.4126948,6.64773696 C28.0906939,6.60801331 27.7671357,6.57624696 27.4422228,6.55250262 C27.1668148,6.53237605 26.9598684,6.292798 26.9799949,6.01739006 C27.0001215,5.74198213 27.2396996,5.53503568 27.5151075,5.55516224 C27.8565814,5.58011685 28.1966621,5.61350534 28.5351317,5.65526065 Z M25.4227382,5.50797477 C25.698775,5.50033918 25.9287369,5.71792133 25.9363725,5.99395812 C25.9440081,6.26999491 25.7264259,6.49995682 25.4503891,6.50759241 C25.1248225,6.51659807 24.8003687,6.53360465 24.4772198,6.55855617 C24.201897,6.57981487 23.9614701,6.37385517 23.9402114,6.0985323 C23.9189527,5.82320944 24.1249124,5.58278258 24.4002353,5.56152389 C24.7398014,5.53530473 25.0807048,5.51743593 25.4227382,5.50797477 Z M22.362874,5.82175621 C22.6346921,5.77307884 22.8945051,5.95397021 22.9431825,6.22578839 C22.9918599,6.49760658 22.8109685,6.75741956 22.5391503,6.80609692 C22.2185543,6.86350946 21.8999024,6.92889666 21.5834185,7.00217123 C21.3143925,7.064458 21.0458105,6.89686278 20.9835237,6.62783681 C20.921237,6.35881085 21.0888322,6.09022881 21.3578581,6.02794204 C21.690673,5.95088641 22.0257579,5.88212716 22.362874,5.82175621 Z M19.3628526,6.59841574 C19.6241363,6.50905452 19.9083902,6.64842525 19.9977514,6.90970897 C20.0871127,7.17099269 19.9477419,7.45524658 19.6864582,7.5446078 C19.3788109,7.64982574 19.0740301,7.76272702 18.7723614,7.88318644 C18.5159087,7.98559063 18.2249977,7.86070964 18.1225935,7.60425693 C18.0201893,7.34780422 18.1450703,7.05689322 18.401523,6.95448903 C18.7187751,6.82780701 19.0393049,6.70907176 19.3628526,6.59841574 Z M16.5455364,7.80571006 C16.7904669,7.67818096 17.0924051,7.77335358 17.2199342,8.01828405 C17.3474633,8.26321453 17.2522906,8.56515268 17.0073602,8.69268178 C16.719106,8.84276846 16.4346797,9.0000503 16.1543362,9.16436143 C15.9160983,9.30399422 15.6097736,9.22405898 15.4701408,8.98582108 C15.3305081,8.74758318 15.4104433,8.44125847 15.6486812,8.30162568 C15.9434212,8.12887662 16.2424622,7.96351313 16.5455364,7.80571006 Z M13.9099039,9.44295082 C14.1327894,9.27992729 14.4456305,9.32845499 14.608654,9.55134048 C14.7716775,9.77422597 14.7231498,10.087067 14.5002643,10.2500906 C14.2379917,10.4419228 13.9805178,10.6402728 13.7280915,10.844936 C13.5135935,11.0188476 13.1987254,10.9859458 13.0248138,10.7714478 C12.8509023,10.5569498 12.8838041,10.2420817 13.0983021,10.0681701 C13.363613,9.85306028 13.6342337,9.64458229 13.9099039,9.44295082 Z M11.5376285,11.4710694 C11.7333357,11.2762533 12.0499174,11.2769757 12.2447335,11.4726829 C12.4395496,11.6683901 12.4388272,11.9849717 12.24312,12.1797878 C12.0127903,12.4090687 11.7881848,12.6440421 11.5695307,12.8844729 C11.3837398,13.0887676 11.0675128,13.1037678 10.8632182,12.9179768 C10.6589235,12.7321858 10.6439232,12.4159589 10.8297142,12.2116642 C11.0595116,11.9589804 11.2955623,11.7120334 11.5376285,11.4710694 Z M9.56423783,13.7457951 C9.72946429,13.5245377 10.0427713,13.4791156 10.2640287,13.6443421 C10.4852861,13.8095686 10.5307081,14.1228756 10.3654817,14.344133 C10.1709365,14.6046515 9.98291584,14.8699723 9.80161487,15.139843 C9.64762391,15.3690621 9.33697078,15.4300465 9.10775168,15.2760556 C8.87853258,15.1220646 8.81754811,14.8114115 8.97153906,14.5821924 C9.16211502,14.2985157 9.35974963,14.0196285 9.56423783,13.7457951 Z M7.90334528,16.360341 C8.0333759,16.1167294 8.33627283,16.0246537 8.5798845,16.1546843 C8.82349618,16.2847149 8.91557182,16.5876119 8.7855412,16.8312236 C8.63247842,17.1179859 8.48661028,17.4085756 8.34809202,17.7027386 C8.2304498,17.9525683 7.93255489,18.0597275 7.68272511,17.9420853 C7.43289533,17.8244431 7.32573614,17.5265482 7.44337836,17.2767184 C7.58903089,16.9674048 7.74240781,16.6618565 7.90334528,16.360341 Z M6.65435807,19.2014975 C6.74590931,18.940973 7.03132304,18.8039932 7.29184747,18.8955444 C7.55237191,18.9870957 7.68935175,19.2725094 7.59780051,19.5330338 C7.49014397,19.8393886 7.39015327,20.1485877 7.29794252,20.4603908 C7.21963061,20.7251961 6.94147914,20.8763789 6.67667382,20.798067 C6.4118685,20.7197551 6.26068573,20.4416036 6.33899765,20.1767983 C6.43597582,19.8488745 6.54113621,19.5236893 6.65435807,19.2014975 Z M5.84950112,22.211245 C5.90022929,21.9398021 6.16140057,21.7608774 6.4328435,21.8116056 C6.70428643,21.8623338 6.88321109,22.123505 6.83248292,22.394948 C6.77286035,22.7139842 6.72116113,23.0349322 6.6774628,23.3575767 C6.640401,23.6312207 6.38852419,23.8230085 6.1148802,23.7859467 C5.84123621,23.7488849 5.64944845,23.4970081 5.68651024,23.2233641 C5.73245267,22.8841504 5.78681006,22.5467005 5.84950112,22.211245 Z M5.51120921,25.3157615 C5.52026452,25.0397677 5.75134252,24.8233712 6.02733639,24.8324265 C6.30333025,24.8414818 6.51972671,25.0725598 6.5106714,25.3485537 C6.50370056,25.5610161 6.5001401,25.7739442 6.50000416,25.9869835 C6.50000015,26.1103801 6.5009179,26.2223791 6.50283023,26.3357186 C6.50748881,26.6118217 6.28743956,26.839424 6.01133649,26.8440825 C5.73523341,26.8487411 5.50763112,26.6286919 5.50297254,26.3525888 C5.50096386,26.2335386 5.49999997,26.1159091 5.50000426,25.9866484 C5.50014714,25.7625855 5.50388684,25.5389378 5.51120921,25.3157615 Z M5.63887925,28.3985806 C5.60690602,28.1242955 5.80333861,27.876024 6.07762372,27.8440508 C6.35190884,27.8120776 6.60018028,28.0085102 6.63215351,28.2827953 C6.66988699,28.6064951 6.71564394,28.9286006 6.76935066,29.2488998 C6.81501581,29.5212402 6.6312592,29.7790346 6.35891878,29.8246998 C6.08657836,29.8703649 5.8287839,29.6866083 5.78311875,29.4142679 C5.72665231,29.0775101 5.67854679,28.7388719 5.63887925,28.3985806 Z M6.22700187,31.4300115 C6.154027,31.163686 6.31076867,30.8886287 6.57709418,30.8156538 C6.84341969,30.7426789 7.118477,30.8994206 7.19145187,31.1657461 C7.2774062,31.4794408 7.37118536,31.790654 7.47268033,32.099148 C7.55898089,32.3614585 7.4162966,32.6440637 7.15398604,32.7303642 C6.89167549,32.8166648 6.60907035,32.6739805 6.5227698,32.4116699 C6.41602742,32.0872265 6.31739966,31.7599228 6.22700187,31.4300115 Z M7.27958429,34.3665784 C7.166771,34.1145313 7.27964236,33.8187534 7.53168952,33.7059401 C7.78373668,33.5931268 8.07951452,33.7059982 8.19232781,33.9580454 C8.32506026,34.2545959 8.4651976,34.5477024 8.61259019,34.8371124 C8.73790951,35.0831809 8.64002301,35.3842501 8.39395457,35.5095695 C8.14788612,35.6348888 7.84681685,35.5370023 7.72149753,35.2909338 C7.56651553,34.9866218 7.41915844,34.6784146 7.27958429,34.3665784 Z M8.72938058,37.0488432 C8.58035279,36.8163667 8.64800134,36.5070964 8.88047785,36.3580686 C9.11295435,36.2090408 9.4222247,36.2766893 9.5712525,36.5091658 C9.74658435,36.7826755 9.92872637,37.0517793 10.1174891,37.3162243 C10.2779224,37.5409814 10.2257776,37.85324 10.0010205,38.0136732 C9.77626333,38.1741065 9.46400479,38.1219617 9.30357151,37.8972046 C9.10515337,37.619233 8.91369004,37.3363575 8.72938058,37.0488432 Z M10.6021277,39.5338824 C10.4197448,39.3265396 10.4399788,39.0106044 10.6473216,38.8282214 C10.8546645,38.6458384 11.1705997,38.6660725 11.3529827,38.8734153 C11.5677086,39.1175275 11.7884832,39.3562779 12.0150821,39.5894287 C12.207542,39.7874534 12.2030309,40.1040037 12.0050062,40.2964637 C11.8069815,40.4889236 11.4904311,40.4844125 11.2979712,40.2863878 C11.0598249,40.0413557 10.8277988,39.7904376 10.6021277,39.5338824 Z M12.8011524,41.6862625 C12.5899458,41.5083682 12.5629408,41.1929396 12.7408351,40.981733 C12.9187294,40.7705264 13.234158,40.7435214 13.4453646,40.9214157 C13.6940926,41.1309134 13.9479914,41.3341883 14.2068138,41.5310312 C14.4266114,41.6981945 14.46928,42.0118884 14.3021167,42.2316861 C14.1349533,42.4514838 13.8212594,42.4941524 13.6014617,42.326989 C13.329426,42.1200969 13.0625699,41.9064482 12.8011524,41.6862625 Z M15.2666463,43.468843 C15.0315011,43.3240626 14.9582461,43.0160721 15.1030265,42.7809269 C15.247807,42.5457818 15.5557975,42.4725267 15.7909427,42.6173072 C16.0677784,42.7877569 16.3488415,42.9512636 16.6338767,43.1076555 C16.8759723,43.2404874 16.964548,43.5444263 16.831716,43.7865219 C16.6988841,44.0286175 16.3949452,44.1171931 16.1528496,43.9843612 C15.8531747,43.8199368 15.5576842,43.6480371 15.2666463,43.468843 Z M18.0248132,44.8907023 C17.7704591,44.7831914 17.6514192,44.4898418 17.7589301,44.2354877 C17.8664411,43.9811336 18.1597907,43.8620937 18.4141448,43.9696046 C18.7133245,44.0960626 19.0157434,44.2150229 19.3211541,44.3263553 C19.5805961,44.4209305 19.714247,44.7079181 19.6196718,44.9673601 C19.5250966,45.2268021 19.238109,45.360453 18.978667,45.2658778 C18.6574776,45.1487936 18.3394392,45.0236891 18.0248132,44.8907023 Z M20.9741199,45.8792839 C20.7063521,45.8117928 20.5439958,45.5400119 20.6114869,45.2722441 C20.678978,45.0044764 20.950759,44.8421201 21.2185267,44.9096112 C21.5332906,44.9889477 21.8503355,45.0604377 22.1694349,45.1239898 C22.4402584,45.1779273 22.6160793,45.441198 22.5621419,45.7120215 C22.5082045,45.982845 22.2449338,46.1586659 21.9741103,46.1047285 C21.6385496,46.0378979 21.3051389,45.9627176 20.9741199,45.8792839 Z M24.0490887,46.4083427 C23.7741694,46.3823809 23.5723496,46.1384686 23.5983114,45.8635493 C23.6242732,45.5886301 23.8681856,45.3868102 24.1431048,45.4127721 C24.4660576,45.4432699 24.7904098,45.4658081 25.1159651,45.4803273 C25.3918333,45.4926306 25.6054949,45.7262397 25.5931916,46.0021078 C25.5808883,46.277976 25.3472792,46.4916375 25.0714111,46.4793343 C24.7293381,46.4640784 24.3884935,46.4403942 24.0490887,46.4083427 Z" id="Oval-3-Copy" fill="#F88888" fill-rule="nonzero"></path>
                        <path d="M10.565017,22.4809435 L16.301017,22.4809435 L16.301017,23.3329435 L11.549017,23.3329435 L11.549017,26.2129435 L16.049017,26.2129435 L16.049017,27.0649435 L11.549017,27.0649435 L11.549017,31.0489435 L10.565017,31.0489435 L10.565017,22.4809435 Z M20.069017,24.6769435 C20.957017,24.6769435 21.605017,24.9049435 22.037017,25.3729435 C22.397017,25.7809435 22.589017,26.3449435 22.589017,27.0649435 L22.589017,31.0489435 L21.689017,31.0489435 L21.689017,30.0049435 C21.449017,30.3409435 21.125017,30.6169435 20.741017,30.8329435 C20.285017,31.0849435 19.769017,31.2169435 19.193017,31.2169435 C18.569017,31.2169435 18.077017,31.0609435 17.705017,30.7489435 C17.321017,30.4249435 17.129017,30.0049435 17.129017,29.5009435 C17.129017,28.7929435 17.405017,28.2649435 17.981017,27.9049435 C18.485017,27.5689435 19.205017,27.3889435 20.141017,27.3769435 L21.629017,27.3529435 L21.629017,27.0289435 C21.629017,25.9849435 21.089017,25.4689435 20.009017,25.4689435 C19.553017,25.4689435 19.181017,25.5529435 18.893017,25.7449435 C18.569017,25.9369435 18.365017,26.2369435 18.269017,26.6329435 L17.321017,26.5609435 C17.453017,25.9129435 17.777017,25.4209435 18.281017,25.1089435 C18.737017,24.8209435 19.325017,24.6769435 20.069017,24.6769435 Z M21.629017,28.0729435 L20.201017,28.0969435 C18.809017,28.1209435 18.113017,28.5769435 18.113017,29.4769435 C18.113017,29.7649435 18.221017,29.9929435 18.461017,30.1849435 C18.701017,30.3649435 19.013017,30.4609435 19.397017,30.4609435 C19.985017,30.4609435 20.501017,30.2689435 20.957017,29.8849435 C21.401017,29.5129435 21.629017,29.0809435 21.629017,28.6009435 L21.629017,28.0729435 Z M24.869017,22.5049435 C25.073017,22.5049435 25.241017,22.5649435 25.385017,22.7089435 C25.529017,22.8289435 25.601017,22.9969435 25.601017,23.2129435 C25.601017,23.4169435 25.529017,23.5849435 25.385017,23.7289435 C25.241017,23.8609435 25.073017,23.9329435 24.869017,23.9329435 C24.665017,23.9329435 24.497017,23.8609435 24.353017,23.7289435 C24.209017,23.5849435 24.149017,23.4169435 24.149017,23.2129435 C24.149017,22.9969435 24.209017,22.8289435 24.353017,22.7089435 C24.497017,22.5649435 24.665017,22.5049435 24.869017,22.5049435 Z M24.389017,24.8449435 L25.349017,24.8449435 L25.349017,31.0489435 L24.389017,31.0489435 L24.389017,24.8449435 Z M27.341017,22.3129435 L28.289017,22.3129435 L28.289017,31.0489435 L27.341017,31.0489435 L27.341017,22.3129435 Z M32.525017,24.6769435 C33.521017,24.6769435 34.277017,25.0129435 34.781017,25.6849435 C35.237017,26.2849435 35.477017,27.1369435 35.501017,28.2169435 L30.605017,28.2169435 C30.653017,28.9129435 30.833017,29.4529435 31.169017,29.8369435 C31.505017,30.2209435 31.973017,30.4129435 32.561017,30.4129435 C33.065017,30.4129435 33.485017,30.2809435 33.797017,30.0289435 C34.061017,29.8129435 34.265017,29.4889435 34.421017,29.0569435 L35.381017,29.0569435 C35.237017,29.6569435 34.961017,30.1369435 34.541017,30.5209435 C34.025017,30.9769435 33.365017,31.2169435 32.561017,31.2169435 C31.673017,31.2169435 30.953017,30.9169435 30.425017,30.3409435 C29.873017,29.7409435 29.609017,28.9489435 29.609017,27.9409435 C29.609017,27.0289435 29.861017,26.2609435 30.389017,25.6489435 C30.917017,25.0009435 31.625017,24.6769435 32.525017,24.6769435 Z M32.549017,25.4809435 C31.997017,25.4809435 31.553017,25.6609435 31.217017,26.0209435 C30.881017,26.3809435 30.689017,26.8609435 30.629017,27.4729435 L34.505017,27.4729435 C34.385017,26.1409435 33.725017,25.4809435 32.549017,25.4809435 Z M41.213017,22.3129435 L42.173017,22.3129435 L42.173017,31.0489435 L41.273017,31.0489435 L41.273017,30.0289435 C40.841017,30.8209435 40.145017,31.2169435 39.209017,31.2169435 C38.297017,31.2169435 37.589017,30.8809435 37.085017,30.2329435 C36.617017,29.6329435 36.389017,28.8649435 36.389017,27.9289435 C36.389017,27.0169435 36.617017,26.2729435 37.085017,25.6729435 C37.589017,25.0009435 38.273017,24.6769435 39.161017,24.6769435 C40.049017,24.6769435 40.733017,25.1089435 41.213017,25.9849435 L41.213017,22.3129435 Z M39.365017,25.4689435 C38.681017,25.4689435 38.165017,25.7089435 37.829017,26.1889435 C37.517017,26.6089435 37.373017,27.1849435 37.373017,27.9289435 C37.373017,28.6729435 37.517017,29.2609435 37.817017,29.6929435 C38.153017,30.1729435 38.657017,30.4249435 39.329017,30.4249435 C39.953017,30.4249435 40.433017,30.1849435 40.781017,29.7049435 C41.081017,29.2729435 41.237017,28.7089435 41.237017,28.0129435 L41.237017,27.8929435 C41.237017,27.1729435 41.057017,26.5849435 40.721017,26.1409435 C40.373017,25.6849435 39.917017,25.4689435 39.365017,25.4689435 Z" id="Failed" fill="#F76060"></path>
                    </g>
                </g>
            </g>
        </g>
    </g>
</svg>