<?xml version="1.0" encoding="UTF-8"?>
<svg width="18px" height="20px" viewBox="0 0 18 20" version="1.1" xmlns="http://www.w3.org/2000/svg" xmlns:xlink="http://www.w3.org/1999/xlink">
    <!-- Generator: Sketch 48.2 (47327) - http://www.bohemiancoding.com/sketch -->
    <title>Group 17</title>
    <desc>Created with Sketch.</desc>
    <defs></defs>
    <g id="1-1-首页" stroke="none" stroke-width="1" fill="none" fill-rule="evenodd" transform="translate(-225.000000, -1380.000000)">
        <g id="Group-5" transform="translate(0.000000, 1372.000000)">
            <g id="Group-17" transform="translate(225.000000, 8.000000)">
                <rect id="Rectangle-18" fill="#B1B0BD" x="0" y="0" width="18" height="20" rx="2"></rect>
                <path d="M16,17.5 C16,17.7761424 15.7761424,18 15.5,18 L2.5,18 C2.22385763,18 2,17.7761424 2,17.5 C2,17.2238576 2.22385763,17 2.5,17 L15.5,17 C15.7761424,17 16,17.2238576 16,17.5 Z M8,13.5 C8,13.7761424 7.77614237,14 7.5,14 L2.5,14 C2.22385763,14 2,13.7761424 2,13.5 C2,13.2238576 2.22385763,13 2.5,13 L7.5,13 C7.77614237,13 8,13.2238576 8,13.5 Z M8,9.5 C8,9.77614237 7.77614237,10 7.5,10 L2.5,10 C2.22385763,10 2,9.77614237 2,9.5 C2,9.22385763 2.22385763,9 2.5,9 L7.5,9 C7.77614237,9 8,9.22385763 8,9.5 Z M8,5.5 C8,5.77614237 7.77614237,6 7.5,6 L2.5,6 C2.22385763,6 2,5.77614237 2,5.5 C2,5.22385763 2.22385763,5 2.5,5 L7.5,5 C7.77614237,5 8,5.22385763 8,5.5 Z" id="Combined-Shape" fill="#FFFFFF"></path>
                <path d="M12.1851751,13.6737137 L14.2275324,13.6737137 L14.2275324,14.4284353 L13.2063159,16.698638 L12.1850993,14.4284353 L12.1851751,13.6737137 Z M13.1982638,3.68480843 C13.7505485,3.68480843 14.1982638,4.13252368 14.1982638,4.68480843 L14.1982638,12.6848084 L12.1982638,12.6848084 L12.1982638,4.68480843 C12.1982638,4.13252368 12.645979,3.68480843 13.1982638,3.68480843 Z" id="Combined-Shape" fill="#FFFFFF" transform="translate(13.206316, 10.191723) rotate(30.000000) translate(-13.206316, -10.191723) "></path>
            </g>
        </g>
    </g>
</svg>