<?xml version="1.0" encoding="UTF-8"?>
<svg width="14px" height="14px" viewBox="0 0 14 14" version="1.1" xmlns="http://www.w3.org/2000/svg" xmlns:xlink="http://www.w3.org/1999/xlink">
    <!-- Generator: Sketch 48.2 (47327) - http://www.bohemiancoding.com/sketch -->
    <title>Combined Shape</title>
    <desc>Created with Sketch.</desc>
    <defs></defs>
    <g id="1-7考试详情-" stroke="none" stroke-width="1" fill="none" fill-rule="evenodd" transform="translate(-157.000000, -635.000000)">
        <g id="Group" transform="translate(158.000000, 636.000000)" fill="#898989" fill-rule="nonzero">
            <path d="M0.200000003,0 C0.0895430514,0 0,0.0895430514 0,0.200000003 L0,4.8 C0,4.91045695 0.0895430514,5 0.200000003,5 L4.8,5 C4.91045695,5 5,4.91045695 5,4.8 L5,0.200000003 C5,0.0895430514 4.91045695,0 4.8,0 L0.200000003,0 Z M0.200000003,-0.5 L4.8,-0.5 C5.18659932,-0.5 5.5,-0.186599324 5.5,0.200000003 L5.5,4.8 C5.5,5.18659932 5.18659932,5.5 4.8,5.5 L0.200000003,5.5 C-0.186599324,5.5 -0.5,5.18659932 -0.5,4.8 L-0.5,0.200000003 C-0.5,-0.186599324 -0.186599324,-0.5 0.200000003,-0.5 Z M7.2,0 C7.08954305,0 7,0.0895430514 7,0.200000003 L7,4.8 C7,4.91045695 7.08954305,5 7.2,5 L11.8,5 C11.9104569,5 12,4.91045695 12,4.8 L12,0.200000003 C12,0.0895430514 11.9104569,0 11.8,0 L7.2,0 Z M7.2,-0.5 L11.8,-0.5 C12.1865993,-0.5 12.5,-0.186599324 12.5,0.200000003 L12.5,4.8 C12.5,5.18659932 12.1865993,5.5 11.8,5.5 L7.2,5.5 C6.81340068,5.5 6.5,5.18659932 6.5,4.8 L6.5,0.200000003 C6.5,-0.186599324 6.81340068,-0.5 7.2,-0.5 Z M0.200000003,7 C0.0895430514,7 0,7.08954305 0,7.2 L0,11.8 C0,11.9104569 0.0895430514,12 0.200000003,12 L4.8,12 C4.91045695,12 5,11.9104569 5,11.8 L5,7.2 C5,7.08954305 4.91045695,7 4.8,7 L0.200000003,7 Z M0.200000003,6.5 L4.8,6.5 C5.18659932,6.5 5.5,6.81340068 5.5,7.2 L5.5,11.8 C5.5,12.1865993 5.18659932,12.5 4.8,12.5 L0.200000003,12.5 C-0.186599324,12.5 -0.5,12.1865993 -0.5,11.8 L-0.5,7.2 C-0.5,6.81340068 -0.186599324,6.5 0.200000003,6.5 Z M7.2,7 C7.08954305,7 7,7.08954305 7,7.2 L7,11.8 C7,11.9104569 7.08954305,12 7.2,12 L11.8,12 C11.9104569,12 12,11.9104569 12,11.8 L12,7.2 C12,7.08954305 11.9104569,7 11.8,7 L7.2,7 Z M7.2,6.5 L11.8,6.5 C12.1865993,6.5 12.5,6.81340068 12.5,7.2 L12.5,11.8 C12.5,12.1865993 12.1865993,12.5 11.8,12.5 L7.2,12.5 C6.81340068,12.5 6.5,12.1865993 6.5,11.8 L6.5,7.2 C6.5,6.81340068 6.81340068,6.5 7.2,6.5 Z" id="Combined-Shape"></path>
        </g>
    </g>
</svg>