<?xml version="1.0" encoding="UTF-8"?>
<svg width="20px" height="21px" viewBox="0 0 20 21" version="1.1" xmlns="http://www.w3.org/2000/svg" xmlns:xlink="http://www.w3.org/1999/xlink">
    <!-- Generator: Sketch 48.2 (47327) - http://www.bohemiancoding.com/sketch -->
    <title>Combined Shape</title>
    <desc>Created with Sketch.</desc>
    <defs></defs>
    <g id="1-1-首页" stroke="none" stroke-width="1" fill="none" fill-rule="evenodd" transform="translate(-39.000000, -1380.000000)">
        <g id="Group-5" transform="translate(0.000000, 1372.000000)" fill="#B1B0BD">
            <g id="Group" transform="translate(39.000000, 8.000000)">
                <path d="M17.356278,9.50669217 L17.356278,18.0887097 C17.356278,19.1932792 16.4608475,20.0887097 15.356278,20.0887097 L12.2000008,20.0887097 L12.2000008,15 C12.2000008,14.4477153 11.7522855,14 11.2000008,14 L8.70000076,14 C8.14771601,14 7.70000076,14.4477153 7.70000076,15 L7.70000076,20.0887097 L4.41627768,20.0887097 C3.31170818,20.0887097 2.41627768,19.1932792 2.41627768,18.0887097 L2.41627768,9.61086211 L1.54284707,10.5270547 C1.25703394,10.8268609 0.782295714,10.8382045 0.482489556,10.5523913 C0.182683398,10.2665782 0.171339805,9.79183999 0.457152931,9.49203384 L8.35331144,1.20928988 C9.02020873,0.509742177 10.1279313,0.483273792 10.827479,1.15017109 L19.3789345,9.37035903 C19.6775543,9.65741151 19.6869314,10.1321927 19.3998789,10.4308124 C19.1128264,10.7294321 18.6380453,10.7388092 18.3394255,10.4517568 L17.356278,9.50669217 Z" id="Combined-Shape"></path>
            </g>
        </g>
    </g>
</svg>