<?xml version="1.0" encoding="UTF-8"?>
<svg width="13px" height="18px" viewBox="0 0 13 18" version="1.1" xmlns="http://www.w3.org/2000/svg" xmlns:xlink="http://www.w3.org/1999/xlink">
    <!-- Generator: Sketch 48.2 (47327) - http://www.bohemiancoding.com/sketch -->
    <title>Shape</title>
    <desc>Created with Sketch.</desc>
    <defs></defs>
    <g id="1-1-首页" stroke="none" stroke-width="1" fill="none" fill-rule="evenodd" transform="translate(-14.000000, -595.000000)">
        <g id="热门" transform="translate(13.000000, 594.000000)" fill="#FE7D06" fill-rule="nonzero">
            <path d="M11.7281233,7.05314579 C11.7281233,7.05314579 11.914629,8.04640565 11.3698584,9.0500716 C11.3063436,9.16735069 11.230285,9.28428085 11.145415,9.40002057 C11.1227137,9.43105417 11.100869,9.46190304 11.0764748,9.49275193 C11.0407401,9.53776296 11.0022722,9.58224035 10.962805,9.62673824 C10.922991,9.67156456 10.8804846,9.71571353 10.8366117,9.75953415 C10.8018764,9.79448799 10.7686913,9.82977024 10.7312432,9.86402623 C10.6458966,9.94191637 10.5567414,10.0154731 10.46411,10.0844222 C10.4337804,10.1069175 10.4004117,10.128407 10.3687359,10.1505534 C10.2861878,10.2082524 10.2014227,10.2626714 10.114636,10.313685 C10.0783914,10.335154 10.0419632,10.3566436 10.0040257,10.3774352 C9.87783239,10.4464809 9.74603006,10.5134535 9.6015411,10.5750076 C9.68031248,10.4233083 9.75010936,10.2642611 9.8149703,10.1016426 C9.8319198,10.0588483 9.84680927,10.0150482 9.86290214,9.97157654 C9.91083397,9.84185938 9.95403379,9.7090635 9.99248123,9.5732094 C10.0041684,9.53179022 10.0158557,9.49088417 10.0267066,9.44895186 C10.0709263,9.27763079 10.1087006,9.10257422 10.1369906,8.92273534 C10.1375005,8.91916402 10.1385203,8.91575688 10.1390302,8.91216502 C10.1705667,8.70809301 10.1910343,8.50244398 10.2003422,8.29613169 L10.2003422,8.29596748 C10.2220237,7.82806211 10.1908578,7.33969343 10.0926078,6.83547956 C9.73128338,4.98019583 8.49641677,2.92411735 5.92822952,1.0057607 C5.92822952,1.0057607 6.89496346,2.3218767 6.04426533,4.52745833 C5.1935672,6.73303996 1.01770572,7.26674806 1.01770572,13.0650844 C1.01770572,13.3737784 1.05988572,13.6439677 1.12662315,13.890964 C1.44101514,16.763378 4.07661288,19.0057607 7.28153875,19.0057607 C10.6982009,19.0057607 13.6864749,16.0692475 13.9578506,13.0057675 C14.1641614,10.6781451 13.9320898,8.72518348 11.7281233,7.05314579 Z" id="Shape"></path>
        </g>
    </g>
</svg>