<?xml version="1.0" encoding="UTF-8"?>
<svg width="22px" height="22px" viewBox="0 0 22 22" version="1.1" xmlns="http://www.w3.org/2000/svg" xmlns:xlink="http://www.w3.org/1999/xlink">
    <!-- Generator: Sketch 54.1 (76490) - https://sketchapp.com -->
    <title>首页</title>
    <desc>Created with Sketch.</desc>
    <g id="首页" stroke="none" stroke-width="1" fill="none" fill-rule="evenodd">
        <path d="M4,11.2108833 L3.54362142,11.6672619 C2.95783498,12.2530483 2.00808751,12.2530483 1.42230107,11.6672619 C0.836514636,11.0814755 0.836514636,10.131728 1.42230107,9.54594155 L9.90758245,1.06066017 C10.4933689,0.474873734 11.4431164,0.474873734 12.0289028,1.06066017 L20.5141842,9.54594155 C21.0999706,10.131728 21.0999706,11.0814755 20.5141842,11.6672619 C19.9283977,12.2530483 18.9786503,12.2530483 18.3928638,11.6672619 L18,11.2743981 L18,19.5 C18,20.3284271 17.3284271,21 16.5,21 L13.25,21 L13.25,16 C13.25,15.4477153 12.8022847,15 12.25,15 L9.75,15 C9.19771525,15 8.75,15.4477153 8.75,16 L8.75,21 L5.5,21 C4.67157288,21 4,20.3284271 4,19.5 L4,11.2108833 Z" id="形状结合" fill="#3AA5FF"></path>
    </g>
</svg>