<?xml version="1.0" encoding="UTF-8"?>
<svg width="22px" height="22px" viewBox="0 0 22 22" version="1.1" xmlns="http://www.w3.org/2000/svg" xmlns:xlink="http://www.w3.org/1999/xlink">
    <!-- Generator: Sketch 54.1 (76490) - https://sketchapp.com -->
    <title>线下培训</title>
    <desc>Created with Sketch.</desc>
    <g id="线下培训" stroke="none" stroke-width="1" fill="none" fill-rule="evenodd">
        <path d="M2,5 L1.5,5 C0.671572875,5 1.01453063e-16,4.32842712 0,3.5 C-1.01453063e-16,2.67157288 0.671572875,2 1.5,2 L20.5,2 C21.3284271,2 22,2.67157288 22,3.5 C22,4.32842712 21.3284271,5 20.5,5 L20,5 L20,15.5 C20,16.3284271 19.3284271,17 18.5,17 L15.8660254,17 L17.1160254,19.1650635 C17.3921678,19.6433561 17.2282926,20.2549465 16.75,20.5310889 C16.2717074,20.8072313 15.660117,20.6433561 15.3839746,20.1650635 L13.5566243,17 L8.44337567,17 L6.6160254,20.1650635 C6.33988303,20.6433561 5.72829262,20.8072313 5.25,20.5310889 C4.77170738,20.2549465 4.60783222,19.6433561 4.8839746,19.1650635 L6.1339746,17 L3.5,17 C2.67157288,17 2,16.3284271 2,15.5 L2,5 Z M9.11667762,9.83847154 L11.6756128,12.0078165 C12.0544204,12.3289517 12.6115045,12.32344 12.9838841,11.9948727 L16.6616185,8.74984066 C17.075744,8.38443888 17.1152424,7.75250711 16.7498407,7.33838154 C16.3844389,6.92425598 15.7525071,6.88475755 15.3383815,7.25015934 L12.3091852,9.92295675 L9.64665281,7.66578696 C9.22516543,7.30846978 8.59376858,7.36072162 8.23675306,7.78246455 L5.36761243,11.1717843 C5.01077745,11.593314 5.06322285,12.2243032 5.48475249,12.5811381 C5.90628214,12.9379731 6.53727134,12.8855277 6.89410632,12.4639981 L9.11667762,9.83847154 Z" id="形状结合" fill="#3AA5FF"></path>
    </g>
</svg>