<?xml version="1.0" encoding="UTF-8"?>
<svg width="22px" height="22px" viewBox="0 0 22 22" version="1.1" xmlns="http://www.w3.org/2000/svg" xmlns:xlink="http://www.w3.org/1999/xlink">
    <!-- Generator: Sketch 54.1 (76490) - https://sketchapp.com -->
    <title>考试</title>
    <desc>Created with Sketch.</desc>
    <g id="考试" stroke="none" stroke-width="1" fill="none" fill-rule="evenodd">
        <path d="M6.5,1.5 L17.4972399,1.5 C18.6033337,1.5 19.5,2.39092539 19.5,3.49742191 L19.5,18.5025781 C19.5,19.6057238 18.6099416,20.5 17.4998938,20.5 L4.50010618,20.5 C3.39547804,20.5 2.5,19.6066027 2.5,18.5081158 L2.5,5.5 L6.5,1.5 Z M6.5,10 L12.5,10 C13.0522847,10 13.5,9.55228475 13.5,9 C13.5,8.44771525 13.0522847,8 12.5,8 L6.5,8 C5.94771525,8 5.5,8.44771525 5.5,9 C5.5,9.55228475 5.94771525,10 6.5,10 Z M6.5,15 L15.5,15 C16.0522847,15 16.5,14.5522847 16.5,14 C16.5,13.4477153 16.0522847,13 15.5,13 L6.5,13 C5.94771525,13 5.5,13.4477153 5.5,14 C5.5,14.5522847 5.94771525,15 6.5,15 Z" id="形状结合" fill="#3AA5FF"></path>
    </g>
</svg>