<?xml version="1.0" encoding="UTF-8"?>
<svg width="22px" height="22px" viewBox="0 0 22 22" version="1.1" xmlns="http://www.w3.org/2000/svg" xmlns:xlink="http://www.w3.org/1999/xlink">
    <!-- Generator: Sketch 54.1 (76490) - https://sketchapp.com -->
    <title>我的</title>
    <desc>Created with Sketch.</desc>
    <g id="我的" stroke="none" stroke-width="1" fill="none" fill-rule="evenodd">
        <path d="M7.25533893,12.8136151 C5.58852785,11.6368124 4.5,9.69552586 4.5,7.5 C4.5,3.91014913 7.41014913,1 11,1 C14.5898509,1 17.5,3.91014913 17.5,7.5 C17.5,9.69552586 16.4114722,11.6368124 14.7446611,12.8136151 C17.8458227,14.2344796 20,17.3656723 20,21 L2,21 C2,17.3656723 4.15417731,14.2344796 7.25533893,12.8136151 Z M8.05705678,9.3320828 C8.49404654,10.5696623 9.66694076,11.413707 11.0004751,11.413707 C12.3324868,11.413707 13.5043429,10.571578 13.9424918,9.33604342 C14.1270815,8.81551956 13.8547531,8.24391208 13.3342293,8.05932236 C12.8137054,7.87473264 12.2420979,8.14706106 12.0575082,8.66758492 C11.9002608,9.11100626 11.4790406,9.41370702 11.0004751,9.41370702 C10.5213668,9.41370702 10.0997687,9.11031427 9.94294322,8.66617563 C9.75905803,8.14540247 9.18781958,7.87230081 8.66704642,8.056186 C8.14627326,8.24007118 7.8731716,8.81130964 8.05705678,9.3320828 Z" id="形状结合" fill="#3AA5FF"></path>
    </g>
</svg>