<?xml version="1.0" encoding="UTF-8"?>
<svg width="20px" height="20px" viewBox="0 0 20 20" version="1.1" xmlns="http://www.w3.org/2000/svg" xmlns:xlink="http://www.w3.org/1999/xlink">
    <!-- Generator: Sketch 64 (93537) - https://sketch.com -->
    <title>icon/20/语言选择@2x</title>
    <desc>Created with Sketch.</desc>
    <g id="icon/20/语言选择" stroke="none" stroke-width="1" fill="none" fill-rule="evenodd">
        <g id="语言类" transform="translate(0.000000, 1.000000)" fill="#3AA5FF" fill-rule="nonzero">
            <path d="M5.41842427,5.25827955 L5.16759976,5.25827955 L4.69898398,7.19067242 L5.88706544,7.19067242 L5.41842427,5.25827955 Z M14.8974978,9.12316686 C15.1505157,9.68348001 15.4869907,10.1370509 15.8594481,10.5230161 C16.2318802,10.1370762 16.6074881,9.6835054 16.8604552,9.12316686 L14.8974978,9.12316686 L14.8974978,9.12316686 Z" id="形状"></path>
            <path d="M18.2422869,3.77679345 L10.9655596,3.77679345 L12.4828583,13.8150473 C12.5096946,14.2256552 12.3735726,14.6122006 12.0486136,14.9148338 L9.47909892,17.3360084 L18.2422927,17.3360084 C19.2115751,17.3360084 20.0000604,16.6858632 20.0000604,15.8866454 L20.0000604,5.25829322 C20.0000604,4.4590501 19.2115517,3.77679345 18.2422927,3.77679345 L18.2422869,3.77679345 Z M18.2422869,9.12316686 L18.0858046,9.12316686 C17.7524039,10.0050116 17.2236904,10.6951218 16.6742132,11.2391068 C17.1045515,11.5635369 17.5649017,11.8297325 18.022455,12.1278813 C18.2748674,12.2943674 18.3160412,12.5982354 18.1134717,12.806802 C17.9118093,13.0150425 17.5418694,13.0487066 17.2900117,12.8817169 C16.7927963,12.5581697 16.3261473,12.2873354 15.8593714,11.9342061 C15.3926716,12.2873373 14.9650285,12.5581697 14.4677877,12.8817169 C14.2159788,13.048707 13.8459667,13.0149915 13.644404,12.806802 C13.4417572,12.5982354 13.4830333,12.2943659 13.7352695,12.1278813 C14.1929985,11.8297833 14.6142158,11.5635623 15.0445542,11.2391068 C14.495077,10.6951726 14.0053714,10.0050136 13.6720214,9.12316686 L13.5155392,9.12316686 C13.1916384,9.12316686 12.9295502,8.90706504 12.9295502,8.640012 C12.9295502,8.37300974 13.1917146,8.15685714 13.5155392,8.15685714 L15.2733811,8.15685714 L15.2733811,7.67382923 C15.2733811,7.40682697 15.5354946,7.19075055 15.8592704,7.19075055 C16.1831712,7.19075055 16.4452594,7.40690314 16.4452594,7.67382923 L16.4452594,8.15685714 L18.2421345,8.15685714 C18.5659845,8.15685714 18.8280493,8.37303513 18.8280493,8.640012 C18.8280493,8.90701426 18.5661114,9.12316686 18.2422869,9.12316686 L18.2422869,9.12316686 Z" id="形状"></path>
            <path d="M9.53762829,2.11544386 C9.428393,1.39174575 8.67823471,0.845872071 7.79361844,0.845872071 L1.75786923,0.845872071 C0.788536074,0.845872071 1.95312727e-06,1.49599197 1.95312727e-06,2.29520969 L1.95312727e-06,12.9878589 C1.95312727e-06,13.7871781 0.788510683,14.4373488 1.75786923,14.4373488 L10.9981144,14.4373488 C11.1690605,14.2762049 11.3123901,14.1751845 11.3184126,13.9650299 C11.3199487,13.9122392 9.54565173,2.16773103 9.53763805,2.11544581 L9.53762829,2.11544386 Z M7.18535992,10.0798086 C6.8746623,10.1326245 6.55993537,9.96626452 6.49588061,9.70099956 L6.12135673,8.15681417 L4.46465949,8.15681417 L4.0901864,9.70099956 C4.02726582,9.96238268 3.72168402,10.1341348 3.4006563,10.0798086 C3.08365984,10.0274966 2.87763811,9.77319496 2.94118897,9.51135676 L4.1130419,4.68023786 C4.16792419,4.45478838 4.40829224,4.29200499 4.68751522,4.29200499 L5.89847561,4.29200499 C6.17772399,4.29200499 6.41804262,4.45476162 6.47299972,4.68023786 L7.64482726,9.51135676 C7.70837772,9.77319301 7.5024058,10.027496 7.18535992,10.0798086 L7.18535992,10.0798086 Z M6.84613883,15.4034085 L6.94670574,16.0662531 C7.01373355,16.5101227 7.37145037,16.9628127 7.95991004,17.18902 C9.07038009,16.1811321 8.39853946,16.7908594 9.92709983,15.4034339 L6.84613883,15.4034339 L6.84613883,15.4034085 L6.84613883,15.4034085 Z" id="形状"></path>
        </g>
    </g>
</svg>