<?xml version="1.0" encoding="UTF-8"?>
<svg width="16px" height="16px" viewBox="0 0 16 16" version="1.1" xmlns="http://www.w3.org/2000/svg" xmlns:xlink="http://www.w3.org/1999/xlink">
    <!-- Generator: Sketch 48.2 (47327) - http://www.bohemiancoding.com/sketch -->
    <title>Combined Shape</title>
    <desc>Created with Sketch.</desc>
    <defs></defs>
    <g id="1-1-首页" stroke="none" stroke-width="1" fill="none" fill-rule="evenodd" transform="translate(-12.000000, -976.000000)">
        <g id="Group-6" transform="translate(11.000000, 975.000000)" fill="#4FCE74">
            <path d="M9,17 C13.418278,17 17,13.418278 17,9 C17,4.581722 13.418278,1 9,1 C4.581722,1 1,4.581722 1,9 C1,13.418278 4.581722,17 9,17 Z M8.85509453,5.62794511 C8.8439313,5.64303398 8.09953889,6.39011945 6.6219173,7.86920151 C6.51842813,7.96836275 6.4766674,8.11574349 6.51275494,8.25445416 C6.54884247,8.39316483 6.65713326,8.50150756 6.79582661,8.5376616 C6.93451996,8.57381564 7.08192071,8.53212559 7.17893116,8.43093059 L8.75235709,6.85779107 L8.75235709,12.3933631 C8.75235709,12.61415 8.93134024,12.7931332 9.15212713,12.7931332 C9.37291403,12.7931332 9.55189718,12.61415 9.55189718,12.3933631 L9.55189718,6.85788431 L11.1246474,8.43092093 C11.2245887,8.53086222 11.3702563,8.56989374 11.5067786,8.53331269 C11.6433009,8.49673164 11.749937,8.39009556 11.7865181,8.25357323 C11.8230991,8.1170509 11.7840676,7.9713833 11.6841263,7.87144203 L9.47994397,5.67519051 C9.46565111,5.65109538 9.46565111,5.65109538 9.43525212,5.61292157 C9.36306267,5.54222027 9.26632989,5.50217289 9.18693961,5.50294808 C9.15550654,5.49962972 9.15106356,5.49916069 9.13112071,5.50129907 C9.03272192,5.50412547 8.93857926,5.54429732 8.85509453,5.62794511 Z" id="Combined-Shape"></path>
        </g>
    </g>
</svg>