<?xml version="1.0" encoding="UTF-8"?>
<svg width="13px" height="16px" viewBox="0 0 13 16" version="1.1" xmlns="http://www.w3.org/2000/svg" xmlns:xlink="http://www.w3.org/1999/xlink">
    <!-- Generator: Sketch 48.2 (47327) - http://www.bohemiancoding.com/sketch -->
    <title>Combined Shape</title>
    <desc>Created with Sketch.</desc>
    <defs></defs>
    <g id="1-1-首页" stroke="none" stroke-width="1" fill="none" fill-rule="evenodd" transform="translate(-13.000000, -229.000000)">
        <g id="Group-13" transform="translate(12.000000, 228.000000)" fill="#4FCE74">
            <path d="M10.5719875,17 L2.54929577,17 C1.99701102,17 1.54929577,16.5522847 1.54929577,16 L1.54929577,14.3647059 L3.16122618,14.3647059 C3.88894256,14.3647059 4.47887324,13.7747752 4.47887324,13.0470588 C4.47887324,12.3193424 3.88894256,11.7294118 3.16122618,11.7294118 L1.54929577,11.7294118 L1.54929577,10.3176471 L3.16122618,10.3176471 C3.88894256,10.3176471 4.47887324,9.72771638 4.47887324,9 C4.47887324,8.27228362 3.88894256,7.68235294 3.16122618,7.68235294 L1.54929577,7.68235294 L1.54929577,6.27058824 L3.16122618,6.27058824 C3.88894256,6.27058824 4.47887324,5.68065755 4.47887324,4.95294118 C4.47887324,4.2252248 3.88894256,3.63529412 3.16122618,3.63529412 L1.54929577,3.63529412 L1.54929577,2 C1.54929577,1.44771525 1.99701102,1 2.54929577,1 L10.5719875,1 L10.5719875,17 Z M11.4874804,17 L11.4874804,1 L13,1 C13.5522847,1 14,1.44771525 14,2 L14,16 C14,16.5522847 13.5522847,17 13,17 L11.4874804,17 Z M1.75294118,4.2 L3.17663629,4.2 C3.59247422,4.2 3.92957746,4.53710325 3.92957746,4.95294118 C3.92957746,5.36877911 3.59247422,5.70588235 3.17663629,5.70588235 L1.75294118,5.70588235 C1.33710325,5.70588235 1,5.36877911 1,4.95294118 C1,4.53710325 1.33710325,4.2 1.75294118,4.2 Z M1.75294118,8.34117647 L3.17663629,8.34117647 C3.59247422,8.34117647 3.92957746,8.67827972 3.92957746,9.09411765 C3.92957746,9.50995558 3.59247422,9.84705882 3.17663629,9.84705882 L1.75294118,9.84705882 C1.33710325,9.84705882 1,9.50995558 1,9.09411765 C1,8.67827972 1.33710325,8.34117647 1.75294118,8.34117647 Z M1.75294118,12.2941176 L3.17663629,12.2941176 C3.59247422,12.2941176 3.92957746,12.6312209 3.92957746,13.0470588 C3.92957746,13.4628968 3.59247422,13.8 3.17663629,13.8 L1.75294118,13.8 C1.33710325,13.8 1,13.4628968 1,13.0470588 C1,12.6312209 1.33710325,12.2941176 1.75294118,12.2941176 Z" id="Combined-Shape"></path>
        </g>
    </g>
</svg>