<?xml version="1.0" encoding="UTF-8"?>
<svg width="60px" height="60px" viewBox="0 0 60 60" version="1.1" xmlns="http://www.w3.org/2000/svg" xmlns:xlink="http://www.w3.org/1999/xlink">
    <title>分享到美信</title>
    <g id="在线课程" stroke="none" stroke-width="1" fill="none" fill-rule="evenodd">
        <g id="1-3课程详情-点击分享" transform="translate(-218.000000, -505.000000)">
            <g id="操作面板/图标+文字/单行" transform="translate(0.000000, 487.000000)">
                <g id="分享到美信" transform="translate(218.000000, 18.000000)">
                    <rect id="Rectangle" fill="#F5F5F5" fill-rule="nonzero" x="0" y="0" width="60" height="60" rx="14"></rect>
                    <path d="M30.2972973,14 C39.8503308,14 47.5945946,21.163444 47.5945946,30 C47.5945946,38.836556 39.8503308,46 30.2972973,46 C27.7336527,46 25.3002697,45.4841126 23.1118595,44.5584459 C21.9849877,44.0817949 21.195807,46 15.9493181,46 C18.0860778,43.6403781 18.0940889,41.3933223 17.3014,40.5592241 C14.6237526,37.7416992 13,34.0462517 13,30 C13,21.163444 20.7442638,14 30.2972973,14 Z M19.4431897,36.8045024 C19.0221729,36.9618236 18.5816578,37.1018268 18.1228928,37.2276157 C18.6743408,37.2526722 19.245023,37.2526722 19.8576608,37.1562847 L19.8576608,37.1562847 L20.2016121,37.0944712 C20.6617561,37.006385 21.1290559,36.894183 21.6153616,36.74056 L21.6153616,36.74056 C22.3285029,36.514092 23.029068,36.1581831 23.7047979,35.732969 C25.8859661,34.3809844 27.3617077,32.3086521 27.8397068,29.9451314 C27.8397068,29.9451314 27.8452412,29.9784918 27.8555345,30.0407956 L27.8822369,30.2026857 C27.9800018,30.7962771 28.2304842,32.325823 28.4662166,33.8372503 L28.5440181,34.3390796 C28.7360075,35.5854316 28.904832,36.7455844 28.9535778,37.2674126 C29.4797679,37.0400604 34.2114345,34.7564539 35.4440459,29.9122913 C35.4440459,29.9122913 36.5699806,37.0289763 36.5986203,37.2893506 L39.9343629,37.2893506 C39.9053237,37.1337528 39.3915102,33.9714098 38.8522225,30.669994 L38.6785676,29.6075622 C38.1390938,26.3092648 37.6233565,23.1791452 37.5906561,23.0848756 C37.5906561,23.0848756 37.5906561,22.7946468 37.3975753,22.7946468 L34.8646979,22.7946468 C34.5798852,22.7946468 34.6429773,23.0848756 34.6429773,23.0848756 C34.6754216,23.3731853 34.5785111,24.2692806 34.4665333,25.3227328 C34.1540959,27.6385119 33.2779128,31.3022735 31.8111695,32.9767217 C31.5257315,33.29456 31.4762153,33.2554797 31.4762153,33.2554797 C31.4762153,33.2554797 31.1417213,31.1521353 30.777392,28.8580959 L30.6818731,28.2565826 C30.2827271,25.7427332 29.8796312,23.2000822 29.8638317,23.0848756 C29.8638317,23.0848756 29.8638317,22.7946468 29.6688487,22.7946468 L27.1026815,22.7946468 C26.8800098,22.7946468 26.8800098,23.0531019 26.8800098,23.0531019 C26.844712,24.1533487 26.3361708,31.9528498 21.6154673,35.5796445 L21.2875821,35.8229344 C20.8437318,36.13711 20.3715283,36.4098783 19.8576608,36.6412937 L19.8576608,36.6412937 Z" id="Oval-245" fill="#1897F2"></path>
                </g>
            </g>
        </g>
    </g>
</svg>