<?xml version="1.0" encoding="UTF-8"?>
<svg width="20px" height="22px" viewBox="0 0 20 22" version="1.1" xmlns="http://www.w3.org/2000/svg" xmlns:xlink="http://www.w3.org/1999/xlink">
    <!-- Generator: Sketch 48.2 (47327) - http://www.bohemiancoding.com/sketch -->
    <title>Stroke 7</title>
    <desc>Created with Sketch.</desc>
    <defs></defs>
    <g id="1-1-首页" stroke="none" stroke-width="1" fill="none" fill-rule="evenodd" transform="translate(-315.000000, -1379.000000)">
        <g id="Group-5" transform="translate(0.000000, 1372.000000)" fill="#B1B0BD" fill-rule="nonzero">
            <g id="Page-1" transform="translate(315.000000, 7.000000)">
                <path d="M16.7392474,7.87557352 C16.7392474,11.6893524 13.6310046,14.78116 9.79695266,14.78116 C5.96270496,14.78116 2.85442303,11.6893914 2.85442303,7.87557352 C2.85442303,4.06159991 5.96262664,0.969987047 9.79695266,0.969987047 C10.5366108,0.969987047 11.2612216,1.08524319 11.9509621,1.30896814 C14.7842634,2.22798074 16.7392474,4.8644006 16.7392474,7.87557352 Z M15.7392474,7.87557352 C15.7392474,5.29808798 14.0656657,3.04115698 11.6409429,2.25467135 C11.0509991,2.06331655 10.4309971,1.96469942 9.79695266,1.96469942 C6.51490012,1.96469942 3.85442303,4.6109756 3.85442303,7.87557352 C3.85442303,11.1400213 6.51498408,13.7864476 9.79695266,13.7864476 C13.0787198,13.7864476 15.7392474,11.1399879 15.7392474,7.87557352 Z M4.93892754,7.62805107 L4.1564419,7.00867487 L3.37236849,7.98878218 C3.55653435,8.55226687 4.22854081,8.51604857 4.93892754,7.62805107 Z M3.47861426,6.83465164 L3.83434413,5.80789842 L4.04025848,5.03563611 C4.57856941,3.01675181 6.68842069,1.53280608 8.78553769,1.69632671 L11.1454075,1.88033523 L11.2754161,1.90811519 L13.3610811,2.65360662 C13.9739702,2.87267515 14.7399477,3.43771187 15.1245789,3.95481754 L16.0685683,5.22393544 L15.7423864,5.52666971 C15.5585448,5.69729582 15.2312391,5.93572556 14.7710812,6.17009833 C14.0840051,6.5200476 13.3050931,6.74447916 12.4460188,6.7832618 L8.49576591,6.96159477 C6.77720906,7.0391785 4.59768053,8.0546166 3.69477386,9.18326785 L2.91228822,8.56389165 L3.37236849,7.98878218 C3.28647819,7.72598717 3.30669584,7.33275354 3.47861426,6.83465164 Z M3.62006169,8.64167728 C3.11552144,8.29748711 3.62006169,5.48711443 3.62006169,5.48711443 L3.8940124,4.8688511 C4.68538214,3.08285499 6.90438409,1.68457007 8.85247748,1.74076195 L10.99662,1.80260879 L13.1663664,2.76498773 C13.6705001,2.98859341 14.3399036,3.52627893 14.6695957,3.96952342 L15.3408263,4.87193895 C15.3408263,4.87193895 14.1652208,6.05227244 12.2387694,6.30984956 L9.07932092,6.73228514 C7.15266965,6.98988898 4.70867591,7.84472624 3.62006169,8.64167728 C3.62006169,8.64167728 4.12460194,8.98586745 3.62006169,8.64167728 Z M19.0733556,21.969987 L0.50070643,21.969987 C0.50070643,17.8997852 4.94514648,14.3593068 9.75621302,14.3593068 C14.5672796,14.3593068 19.0733556,17.860573 19.0733556,21.969987 Z" id="Stroke-7"></path>
            </g>
        </g>
    </g>
</svg>