<?xml version="1.0" encoding="UTF-8"?>
<svg width="18px" height="18px" viewBox="0 0 18 18" version="1.1" xmlns="http://www.w3.org/2000/svg" xmlns:xlink="http://www.w3.org/1999/xlink">
    <!-- Generator: Sketch 48.2 (47327) - http://www.bohemiancoding.com/sketch -->
    <title>Group 17</title>
    <desc>Created with Sketch.</desc>
    <defs></defs>
    <g id="1-23个人中心" stroke="none" stroke-width="1" fill="none" fill-rule="evenodd" transform="translate(-16.000000, -398.000000)">
        <g id="Group-17" transform="translate(16.000000, 398.000000)">
            <path d="M0,1.99508929 C0,0.893231902 0.892814012,0 2.00629846,0 L15.0463331,0 C16.1543812,0 17.0526316,0.892622799 17.0526316,1.99508929 L17.0526316,16.0049107 C17.0526316,17.1067681 16.1598176,18 15.0463331,18 L2.00629846,18 C0.898250417,18 0,17.1073772 0,16.0049107 L0,1.99508929 Z M15.1578947,15.75 L15.1578947,15.75 C15.1578947,15.9985281 14.9564229,16.2 14.7078947,16.2 L2.34473684,16.2 C2.0962087,16.2 1.89473684,15.9985281 1.89473684,15.75 L1.89473684,15.75 C1.89473684,15.5014719 2.0962087,15.3 2.34473684,15.3 L14.7078947,15.3 C14.9564229,15.3 15.1578947,15.5014719 15.1578947,15.75 Z M7.57894737,12.15 L7.57894737,12.15 C7.57894737,12.3985281 7.37747551,12.6 7.12894737,12.6 L2.34473684,12.6 C2.0962087,12.6 1.89473684,12.3985281 1.89473684,12.15 L1.89473684,12.15 C1.89473684,11.9014719 2.0962087,11.7 2.34473684,11.7 L7.12894737,11.7 C7.37747551,11.7 7.57894737,11.9014719 7.57894737,12.15 Z M7.57894737,8.55 L7.57894737,8.55 C7.57894737,8.79852814 7.37747551,9 7.12894737,9 L2.34473684,9 C2.0962087,9 1.89473684,8.79852814 1.89473684,8.55 L1.89473684,8.55 C1.89473684,8.30147186 2.0962087,8.1 2.34473684,8.1 L7.12894737,8.1 C7.37747551,8.1 7.57894737,8.30147186 7.57894737,8.55 Z M7.57894737,4.95 L7.57894737,4.95 C7.57894737,5.19852814 7.37747551,5.4 7.12894737,5.4 L2.34473684,5.4 C2.0962087,5.4 1.89473684,5.19852814 1.89473684,4.95 L1.89473684,4.95 C1.89473684,4.70147186 2.0962087,4.5 2.34473684,4.5 L7.12894737,4.5 C7.37747551,4.5 7.57894737,4.70147186 7.57894737,4.95 Z" id="Combined-Shape" fill="#4E94FF"></path>
            <g id="Group-4" transform="translate(11.707881, 9.867345) rotate(35.000000) translate(-11.707881, -9.867345) translate(10.207881, 3.867345)" fill="#FFFFFF">
                <path d="M0.930651199,8.98919926 L2.81545621,8.94085711 L2.79759211,9.6386054 L1.80141942,11.7616042 L0.912717132,9.68694935 L0.930651199,8.98919926 Z M1.84210526,-4.17443857e-14 C2.36532239,-4.18404992e-14 2.78947368,0.42415129 2.78947368,0.947368421 L2.78947368,8.1 L0.894736842,8.1 L0.894736842,0.947368421 C0.894736842,0.42415129 1.31888813,-4.16482723e-14 1.84210526,-4.17443857e-14 Z" id="Combined-Shape"></path>
            </g>
        </g>
    </g>
</svg>