<?xml version="1.0" encoding="UTF-8"?>
<svg width="24px" height="24px" viewBox="0 0 24 24" version="1.1" xmlns="http://www.w3.org/2000/svg" xmlns:xlink="http://www.w3.org/1999/xlink">
    <title>icon/24/我的直播课程@2x</title>
    <g id="icon/24/我的直播课程" stroke="none" stroke-width="1" fill="none" fill-rule="evenodd">
        <path d="M20,6 C20.5522847,6 21,6.44771525 21,7 L21,20 C21,20.5522847 20.5522847,21 20,21 L4,21 C3.44771525,21 3,20.5522847 3,20 L3,7 C3,6.44771525 3.44771525,6 4,6 L20,6 Z M19.5,7.5 L4.5,7.5 L4.5,19.5 L19.5,19.5 L19.5,7.5 Z" id="形状结合" fill="#666666"></path>
        <g id="编组-2" transform="translate(7.500000, 2.000000)" fill="#666666">
            <path d="M1.39964428,0.375125231 L3.64964428,4.27223955 C3.85675107,4.63095902 3.7338447,5.08965182 3.37512523,5.2967586 C3.01640576,5.50386538 2.55771296,5.38095902 2.35060618,5.02223955 L0.100606179,1.12512523 C-0.106500603,0.766405764 0.0164057638,0.30771296 0.375125231,0.100606179 C0.733844699,-0.106500603 1.1925375,0.0164057638 1.39964428,0.375125231 Z M8.91065914,0.100606179 C9.2693786,0.30771296 9.39228497,0.766405764 9.18517819,1.12512523 L6.93517819,5.02223955 C6.72807141,5.38095902 6.2693786,5.50386538 5.91065914,5.2967586 C5.55193967,5.08965182 5.4290333,4.63095902 5.63614008,4.27223955 L7.88614008,0.375125231 C8.09324687,0.0164057638 8.55193967,-0.106500603 8.91065914,0.100606179 Z" id="形状结合"></path>
        </g>
        <path d="M10.5010861,10.5478946 L14.8328265,13.1939758 C15.0557245,13.3300237 15.0557245,13.6701434 14.8328265,13.8060242 L10.5010861,16.4521054 C10.278346,16.5881532 10,16.4181769 10,16.1460812 L10,10.8539188 C10,10.5818231 10.278346,10.4118468 10.5010861,10.5478946" id="Fill-5" fill="#E5E5E5"></path>
    </g>
</svg>