<?xml version="1.0" encoding="UTF-8"?>
<svg width="18px" height="17px" viewBox="0 0 18 17" version="1.1" xmlns="http://www.w3.org/2000/svg" xmlns:xlink="http://www.w3.org/1999/xlink">
    <!-- Generator: Sketch 48.2 (47327) - http://www.bohemiancoding.com/sketch -->
    <title>Combined Shape</title>
    <desc>Created with Sketch.</desc>
    <defs></defs>
    <g id="1-23个人中心" stroke="none" stroke-width="1" fill="none" fill-rule="evenodd" transform="translate(-16.000000, -304.000000)">
        <g id="任务" transform="translate(15.000000, 304.000000)" fill="#F7AF00">
            <path d="M14.2741935,2.23076923 L17.4516129,2.23076923 C18.3067635,2.23076923 19,2.92400575 19,3.77915633 L19,15.4516129 C19,16.3067635 18.3067635,17 17.4516129,17 L2.5483871,17 C1.69323652,17 1,16.3067635 1,15.4516129 L1,3.77915633 C1,2.92400575 1.69323652,2.23076923 2.5483871,2.23076923 L5.72580645,2.23076923 L5.72580645,1 C5.72580645,0.723857625 5.94966408,0.5 6.22580645,0.5 C6.50194883,0.5 6.72580645,0.723857625 6.72580645,1 L6.72580645,2.23076923 L13.2741935,2.23076923 L13.2741935,1 C13.2741935,0.723857625 13.4980512,0.5 13.7741935,0.5 C14.0503359,0.5 14.2741935,0.723857625 14.2741935,1 L14.2741935,2.23076923 Z M8.628653,11.3533398 L14.0314878,6.77247466 C14.2421135,6.59389291 14.5576284,6.61986962 14.7362102,6.83049528 C14.914792,7.04112094 14.8888152,7.35663589 14.6781896,7.53521764 L8.46812119,12.8005064 L5.82673524,9.3012344 C5.66036807,9.08083346 5.7041711,8.76729595 5.92457205,8.60092878 C6.144973,8.43456162 6.4585105,8.47836465 6.62487767,8.6987656 L8.628653,11.3533398 Z" id="Combined-Shape"></path>
        </g>
    </g>
</svg>