<?xml version="1.0" encoding="UTF-8"?>
<svg width="16px" height="13px" viewBox="0 0 16 13" version="1.1" xmlns="http://www.w3.org/2000/svg" xmlns:xlink="http://www.w3.org/1999/xlink">
    <!-- Generator: Sketch 48.2 (47327) - http://www.bohemiancoding.com/sketch -->
    <title>Shape</title>
    <desc>Created with Sketch.</desc>
    <defs></defs>
    <g id="1-7考试详情-" stroke="none" stroke-width="1" fill="none" fill-rule="evenodd" transform="translate(-329.000000, -636.000000)">
        <g id="上一题-copy" transform="translate(337.000000, 642.192469) scale(-1, 1) translate(-337.000000, -642.192469) translate(329.000000, 636.000000)" fill="#898989" fill-rule="nonzero">
            <path d="M15.3019091,12.3096011 L10.520386,9.54808592 L10.520386,11.9062851 C10.520386,12.2638996 10.131923,12.4878371 9.82229512,12.3084586 L0.66713529,7.02307615 L0.66713529,12.0433897 C0.66713529,12.2248041 0.520069884,12.3718695 0.338655511,12.3718695 C0.157241139,12.3718695 0.0101757322,12.2248041 0.0101757322,12.0433897 L0.0101757322,0.332371548 C0.010175736,0.150957178 0.157241141,0.00389177596 0.338655511,0.00389177596 C0.520069881,0.00389177596 0.667135287,0.150957178 0.66713529,0.332371548 L0.66713529,5.35382762 L9.82229512,0.0673026544 C9.9662286,-0.0155255061 10.1434084,-0.0153110386 10.2871409,0.0678653277 C10.4308734,0.151041694 10.5193412,0.304554421 10.5192435,0.470618685 L10.5192435,2.82881785 L15.3019091,0.0673026544 C15.4459129,-0.0161111722 15.6235146,-0.0162113543 15.7676125,0.0670399591 C15.9117104,0.150291272 16.0003342,0.304200926 16,0.470618685 L16,11.9062851 C16,12.2638996 15.611537,12.4878371 15.3019091,12.3084586 L15.3019091,12.3096011 Z M9.8634265,1.04417295 C9.8635676,0.994303439 9.83705582,0.948157941 9.79390265,0.923162112 C9.75074948,0.898166283 9.69753031,0.898128821 9.65434198,0.923063873 L0.742542822,6.06677155 C0.699028773,6.0915658 0.672160946,6.13779841 0.672160946,6.18788062 C0.672160946,6.23796282 0.699028773,6.28419543 0.742542822,6.30898968 L9.65434198,11.4538399 C9.69753031,11.4787749 9.75074948,11.4787375 9.79390265,11.4537417 C9.83705582,11.4287458 9.8635676,11.3826003 9.8634265,11.3327308 L9.8634265,1.04417295 Z M15.3430404,1.04417295 C15.3431815,0.994303439 15.3166698,0.948157941 15.2735166,0.923162112 C15.2303634,0.898166283 15.1771442,0.898128821 15.1339559,0.923063873 L10.520386,3.58632078 L10.520386,8.79058299 L15.1339559,11.4549824 C15.1771442,11.4799175 15.2303634,11.47988 15.2735166,11.4548842 C15.3166698,11.4298884 15.3431815,11.3837429 15.3430404,11.3338734 L15.3430404,1.04417295 Z" id="Shape"></path>
        </g>
    </g>
</svg>