<?xml version="1.0" encoding="UTF-8"?>
<svg width="11px" height="10px" viewBox="0 0 11 10" version="1.1" xmlns="http://www.w3.org/2000/svg" xmlns:xlink="http://www.w3.org/1999/xlink">
    <!-- Generator: Sketch 48.2 (47327) - http://www.bohemiancoding.com/sketch -->
    <title>Shape</title>
    <desc>Created with Sketch.</desc>
    <defs></defs>
    <g id="1-17课程评价" stroke="none" stroke-width="1" fill="none" fill-rule="evenodd" transform="translate(-301.000000, -338.000000)">
        <g id="点赞-copy-3" transform="translate(300.000000, 337.000000)" fill="#7382FC" fill-rule="nonzero">
            <path d="M4.00331738,4.33354313 L4.01919502,4.33354313 C4.27771808,4.33302031 4.51810033,4.20549193 4.65674348,3.99530884 L6.30435436,1.50708086 C6.48350707,1.19228449 6.82753687,0.997564596 7.20021987,1.00002353 C7.56540568,1.00002353 7.92998081,1.18355239 8.11806982,1.54649251 C8.41913437,2.12707903 8.43379065,2.80707704 8.15776393,3.39942823 L7.6960909,4.33354313 L11.1342115,4.33354313 C11.6838222,4.33354313 12.0911448,4.82765933 11.9708411,5.34824604 L10.8209333,10.3482313 C10.7349747,10.7279191 10.3865201,10.9989813 9.98308228,10.9999941 L4.00331738,10.9999941 L4.00331738,4.33354313 Z M3.14531394,4.33354313 L1.85800344,4.33354313 C1.38472752,4.33354313 1,4.70589498 1,5.16648187 L1,10.1664672 C1,10.627054 1.38472752,10.9999941 1.85800344,10.9999941 L3.14531394,10.9999941 L3.14531394,4.33354313 Z" id="Shape"></path>
        </g>
    </g>
</svg>