<?xml version="1.0" encoding="UTF-8"?>
<svg width="16px" height="16px" viewBox="0 0 16 16" version="1.1" xmlns="http://www.w3.org/2000/svg" xmlns:xlink="http://www.w3.org/1999/xlink">
    <!-- Generator: Sketch 48.2 (47327) - http://www.bohemiancoding.com/sketch -->
    <title>Combined Shape</title>
    <desc>Created with Sketch.</desc>
    <defs></defs>
    <g id="1-8考试详情答案解析-copy" stroke="none" stroke-width="1" fill="none" fill-rule="evenodd" transform="translate(-16.000000, -347.000000)">
        <g id="Group-8" transform="translate(16.000000, 347.000000)" fill="#4FCE74">
            <path d="M8,16 C12.418278,16 16,12.418278 16,8 C16,3.581722 12.418278,0 8,0 C3.581722,0 0,3.581722 0,8 C0,12.418278 3.581722,16 8,16 Z M11.5005042,5.60907013 C11.695428,5.41347018 12.01201,5.412922 12.2076099,5.60784575 C12.4032099,5.8027695 12.4037581,6.11935152 12.2088343,6.31495148 L7.05405241,11.4876157 L3.76904332,8.2513336 C3.57232767,8.05753585 3.56996224,7.7409622 3.76375998,7.54424655 C3.95755772,7.3475309 4.27413137,7.34516547 4.47084702,7.53896321 L7.04756326,10.0774587 L11.5005042,5.60907013 Z" id="Combined-Shape"></path>
        </g>
    </g>
</svg>