<?xml version="1.0" encoding="UTF-8"?>
<svg width="14px" height="14px" viewBox="0 0 14 14" version="1.1" xmlns="http://www.w3.org/2000/svg" xmlns:xlink="http://www.w3.org/1999/xlink">
    <!-- Generator: Sketch 48.2 (47327) - http://www.bohemiancoding.com/sketch -->
    <title>Oval 2</title>
    <desc>Created with Sketch.</desc>
    <defs></defs>
    <g id="1-5考试-" stroke="none" stroke-width="1" fill="none" fill-rule="evenodd" transform="translate(-335.000000, -82.000000)">
        <g id="搜索栏" transform="translate(10.000000, 74.000000)" fill="#898989" fill-rule="nonzero">
            <g id="Group-7" transform="translate(325.000000, 8.000000)">
                <path d="M6,11.5 C2.96243388,11.5 0.5,9.03756612 0.5,6 C0.5,2.96243388 2.96243388,0.5 6,0.5 C9.03756612,0.5 11.5,2.96243388 11.5,6 C11.5,9.03756612 9.03756612,11.5 6,11.5 Z M6,10.5 C8.48528137,10.5 10.5,8.48528137 10.5,6 C10.5,3.51471863 8.48528137,1.5 6,1.5 C3.51471863,1.5 1.5,3.51471863 1.5,6 C1.5,8.48528137 3.51471863,10.5 6,10.5 Z M9.75755772,10.4646645 C9.56229557,10.2694024 9.56229557,9.95281987 9.75755772,9.75755772 C9.95281987,9.56229557 10.2694024,9.56229557 10.4646645,9.75755772 L13.7644961,13.0573894 C13.9597583,13.2526515 13.9597583,13.569234 13.7644961,13.7644961 C13.569234,13.9597583 13.2526515,13.9597583 13.0573894,13.7644961 L9.75755772,10.4646645 Z" id="Oval-2"></path>
            </g>
        </g>
    </g>
</svg>