<?xml version="1.0" encoding="UTF-8"?>
<svg width="16px" height="18px" viewBox="0 0 16 18" version="1.1" xmlns="http://www.w3.org/2000/svg" xmlns:xlink="http://www.w3.org/1999/xlink">
    <!-- Generator: Sketch 48.2 (47327) - http://www.bohemiancoding.com/sketch -->
    <title>Group 4</title>
    <desc>Created with Sketch.</desc>
    <defs></defs>
    <g id="1-15课程详情" stroke="none" stroke-width="1" fill="none" fill-rule="evenodd" transform="translate(-168.000000, -634.000000)">
        <g id="Group-4" transform="translate(176.663857, 642.063091) rotate(4.000000) translate(-176.663857, -642.063091) translate(168.663857, 633.063091)" fill="#898989" fill-rule="nonzero">
            <path d="M2.51382425,13.2421503 C1.13311238,13.2421503 0.013824252,12.1228622 0.013824252,10.7421503 C0.013824252,9.36143841 1.13311238,8.24215028 2.51382425,8.24215028 C3.89453613,8.24215028 5.01382425,9.36143841 5.01382425,10.7421503 C5.01382425,12.1228622 3.89453613,13.2421503 2.51382425,13.2421503 Z M2.51382425,12.7421503 C3.61839375,12.7421503 4.51382425,11.8467198 4.51382425,10.7421503 C4.51382425,9.63758078 3.61839375,8.74215028 2.51382425,8.74215028 C1.40925475,8.74215028 0.513824252,9.63758078 0.513824252,10.7421503 C0.513824252,11.8467198 1.40925475,12.7421503 2.51382425,12.7421503 Z" id="Oval-2"></path>
            <path d="M13.1501148,17.9939796 C11.7694029,17.9939796 10.6501148,16.8746915 10.6501148,15.4939796 C10.6501148,14.1132677 11.7694029,12.9939796 13.1501148,12.9939796 C14.5308267,12.9939796 15.6501148,14.1132677 15.6501148,15.4939796 C15.6501148,16.8746915 14.5308267,17.9939796 13.1501148,17.9939796 Z M13.1501148,17.4939796 C14.2546843,17.4939796 15.1501148,16.5985491 15.1501148,15.4939796 C15.1501148,14.3894101 14.2546843,13.4939796 13.1501148,13.4939796 C12.0455453,13.4939796 11.1501148,14.3894101 11.1501148,15.4939796 C11.1501148,16.5985491 12.0455453,17.4939796 13.1501148,17.4939796 Z" id="Oval-2-Copy-2"></path>
            <path d="M12.39227,5.8583708 C11.0115582,5.8583708 9.89227003,4.73908268 9.89227003,3.3583708 C9.89227003,1.97765893 11.0115582,0.858370801 12.39227,0.858370801 C13.7729819,0.858370801 14.89227,1.97765893 14.89227,3.3583708 C14.89227,4.73908268 13.7729819,5.8583708 12.39227,5.8583708 Z M12.39227,5.3583708 C13.4968395,5.3583708 14.39227,4.4629403 14.39227,3.3583708 C14.39227,2.2538013 13.4968395,1.3583708 12.39227,1.3583708 C11.2877005,1.3583708 10.39227,2.2538013 10.39227,3.3583708 C10.39227,4.4629403 11.2877005,5.3583708 12.39227,5.3583708 Z" id="Oval-2-Copy"></path>
            <path d="M4.47804079,11.7272102 L4.66992842,11.2654969 L11.0097052,14.6578351 L10.8178176,15.1195484 L4.47804079,11.7272102 Z M4.50414706,9.79277199 L4.23628434,9.37057588 L10.4922039,4.23948162 L10.7600666,4.66167774 L4.50414706,9.79277199 Z" id="Combined-Shape"></path>
        </g>
    </g>
</svg>