<?xml version="1.0" encoding="UTF-8"?>
<svg width="18px" height="17px" viewBox="0 0 18 17" version="1.1" xmlns="http://www.w3.org/2000/svg" xmlns:xlink="http://www.w3.org/1999/xlink">
    <!-- Generator: Sketch 48.2 (47327) - http://www.bohemiancoding.com/sketch -->
    <title>Shape</title>
    <desc>Created with Sketch.</desc>
    <defs>
        <linearGradient x1="0%" y1="43.0595875%" x2="100%" y2="43.0584507%" id="linearGradient-1">
            <stop stop-color="#6791FD" offset="0%"></stop>
            <stop stop-color="#7382FC" offset="66.363793%"></stop>
            <stop stop-color="#7382FC" offset="100%"></stop>
        </linearGradient>
    </defs>
    <g id="1-23个人中心-copy-2" stroke="none" stroke-width="1" fill="none" fill-rule="evenodd" transform="translate(-16.000000, -492.000000)">
        <g id="like-copy" transform="translate(16.000000, 492.000000)" fill="#FF7C06" fill-rule="nonzero">
            <g id="Group-6">
                <path d="M15.684,7.6551508 L9.01875,14.548763 L2.35875,7.70241871 C1.80316611,7.02110648 1.49981888,6.16876193 1.5,5.28950438 C1.5,3.20071286 3.183,1.50056862 5.25,1.50056862 C6.50984694,1.50140547 7.68437605,2.13755605 8.37375,3.19245973 L9,4.14156938 L9.62625,3.19245973 C10.3160057,2.13797098 11.4902917,1.50195203 12.75,1.50056862 C14.81775,1.50056862 16.5,3.20071286 16.5,5.28950438 C16.5,6.16958787 16.1955,7.02641255 15.684,7.6551508 M12.75,1.05425204e-14 C15.645,1.05425204e-14 18,2.37314927 18,5.28950438 C18.0001275,6.51561187 17.5767369,7.70409946 16.8015,8.65377922 L10.0575,15.5954096 C9.77625,15.8842691 9.40125,16.0440797 9,16.0440797 C8.60123413,16.0446593 8.21952305,15.8823232 7.94325,15.5946594 L1.24125,8.70179741 C0.426,7.70992156 0,6.51546894 0,5.28950438 C0,2.37314927 2.355,1.12089067e-14 5.25,1.12089067e-14 C6.66334795,-0.000720168672 8.01652766,0.57216257 9,1.5876016 C9.98362124,0.572379967 11.3367044,-0.000461883536 12.75,1.05425204e-14 Z" id="Shape"></path>
            </g>
        </g>
    </g>
</svg>