<?xml version="1.0" encoding="UTF-8"?>
<svg width="24px" height="24px" viewBox="0 0 24 24" version="1.1" xmlns="http://www.w3.org/2000/svg" xmlns:xlink="http://www.w3.org/1999/xlink">
    <!-- Generator: Sketch 64 (93537) - https://sketch.com -->
    <title>icon/24/专题课程@2x</title>
    <desc>Created with Sketch.</desc>
    <g id="icon/24/专题课程" stroke="none" stroke-width="1" fill="none" fill-rule="evenodd">
        <g id="授课选中icon" transform="translate(2.000000, 3.000000)">
            <path d="M4.84615385,2 L5.15384615,2 C6.17344877,2 7,2.82655123 7,3.84615385 L7,4.15384615 C7,5.17344877 6.17344877,6 5.15384615,6 L4.84615385,6 C3.82655123,6 3,5.17344877 3,4.15384615 L3,3.84615385 C3,2.82655123 3.82655123,2 4.84615385,2 Z" id="矩形备份-5" fill="#000000" opacity="0.1"></path>
            <g id="编组">
                <path d="M5,13 C5.55228475,13 6,13.4477153 6,14 C6,14.5522847 5.55228475,15 5,15 C4.44771525,15 4,14.5522847 4,14 C4,13.4477153 4.44771525,13 5,13 Z" id="矩形备份-9" fill="#000000" opacity="0.1"></path>
                <path d="M9.07692308,0 C9.58672438,0 10,0.413275616 10,0.923076923 L10,7.07692308 C10,7.58672438 9.58672438,8 9.07692308,8 L0.923076923,8 C0.413275616,8 0,7.58672438 0,7.07692308 L0,0.923076923 C0,0.413275616 0.413275616,0 0.923076923,0 L9.07692308,0 Z M8.5,1.5 L1.5,1.5 L1.5,6.5 L8.5,6.5 L8.5,1.5 Z" id="矩形备份-2" fill="#666666" fill-rule="nonzero"></path>
                <path d="M9.07692308,10 C9.58672438,10 10,10.4132756 10,10.9230769 L10,17.0769231 C10,17.5867244 9.58672438,18 9.07692308,18 L0.923076923,18 C0.413275616,18 0,17.5867244 0,17.0769231 L0,10.9230769 C0,10.4132756 0.413275616,10 0.923076923,10 L9.07692308,10 Z M8.5,11.5 L1.5,11.5 L1.5,16.5 L8.5,16.5 L8.5,11.5 Z" id="矩形备份-3" fill="#666666" fill-rule="nonzero"></path>
                <rect id="矩形备份" fill="#666666" x="12" y="1" width="8" height="1.5" rx="0.75"></rect>
                <rect id="矩形备份-4" fill="#666666" x="12" y="11" width="8" height="1.5" rx="0.75"></rect>
                <rect id="矩形备份-7" fill="#666666" x="12" y="5" width="8" height="1.5" rx="0.75"></rect>
                <rect id="矩形备份-10" fill="#666666" x="12" y="15" width="8" height="1.5" rx="0.75"></rect>
            </g>
        </g>
    </g>
</svg>