<?xml version="1.0" encoding="UTF-8"?>
<svg width="14px" height="14px" viewBox="0 0 14 14" version="1.1" xmlns="http://www.w3.org/2000/svg" xmlns:xlink="http://www.w3.org/1999/xlink">
    <!-- Generator: Sketch 48.2 (47327) - http://www.bohemiancoding.com/sketch -->
    <title>Oval 8</title>
    <desc>Created with Sketch.</desc>
    <defs></defs>
    <g id="1-7考试详情-" stroke="none" stroke-width="1" fill="none" fill-rule="evenodd" transform="translate(-305.000000, -81.000000)">
        <g id="Group-2" transform="translate(305.000000, 81.000000)" fill="#7382FC" fill-rule="nonzero">
            <g id="Group-7-Copy">
                <path d="M7,13.25 C3.54822031,13.25 0.75,10.4517797 0.75,7 C0.75,3.54822031 3.54822031,0.75 7,0.75 C10.4517797,0.75 13.25,3.54822031 13.25,7 C13.25,10.4517797 10.4517797,13.25 7,13.25 Z M7,12.75 C10.1756373,12.75 12.75,10.1756373 12.75,7 C12.75,3.82436269 10.1756373,1.25 7,1.25 C3.82436269,1.25 1.25,3.82436269 1.25,7 C1.25,10.1756373 3.82436269,12.75 7,12.75 Z M9.25,7.5 C9.38807119,7.5 9.5,7.61192881 9.5,7.75 C9.5,7.88807119 9.38807119,8 9.25,8 L6,8 L6,4 C6,3.86192881 6.11192881,3.75 6.25,3.75 C6.38807119,3.75 6.5,3.86192881 6.5,4 L6.5,7.5 L9.25,7.5 Z" id="Oval-8"></path>
            </g>
        </g>
    </g>
</svg>