<?xml version="1.0" encoding="UTF-8"?>
<svg width="10px" height="10px" viewBox="0 0 10 10" version="1.1" xmlns="http://www.w3.org/2000/svg" xmlns:xlink="http://www.w3.org/1999/xlink">
    <!-- Generator: Sketch 48.2 (47327) - http://www.bohemiancoding.com/sketch -->
    <title>关闭@3x</title>
    <desc>Created with Sketch.</desc>
    <defs></defs>
    <g id="1-1-首页" stroke="none" stroke-width="1" fill="none" fill-rule="evenodd" transform="translate(-351.000000, -1353.000000)">
        <g id="Group-16" transform="translate(0.000000, 1342.000000)" fill="#FFFFFF">
            <g id="Group-19" transform="translate(347.000000, 7.000000)">
                <path d="M8.55867931,8.55867931 L8.55867931,3.44131798 C8.55867931,3.19758479 8.7633935,3 9,3 C9.24373469,3 9.44132069,3.18849134 9.44132069,3.44131798 L9.44132069,8.55867931 L14.558682,8.55867931 C14.8024152,8.55867931 15,8.7633935 15,9 C15,9.24373469 14.8115087,9.44132069 14.558682,9.44132069 L9.44132069,9.44132069 L9.44132069,14.558682 C9.44132069,14.8024152 9.2366065,15 9,15 C8.75626531,15 8.55867931,14.8115087 8.55867931,14.558682 L8.55867931,9.44132069 L3.44131798,9.44132069 C3.19758479,9.44132069 3,9.2366065 3,9 C3,8.75626531 3.18849134,8.55867931 3.44131798,8.55867931 L8.55867931,8.55867931 Z" id="关闭" transform="translate(9.000000, 9.000000) rotate(45.000000) translate(-9.000000, -9.000000) "></path>
            </g>
        </g>
    </g>
</svg>