<?xml version="1.0" encoding="UTF-8"?>
<svg width="12px" height="12px" viewBox="0 0 12 12" version="1.1" xmlns="http://www.w3.org/2000/svg" xmlns:xlink="http://www.w3.org/1999/xlink">
    <!-- Generator: Sketch 64 (93537) - https://sketch.com -->
    <title>icon/12/阅读灰色@2x</title>
    <desc>Created with Sketch.</desc>
    <g id="icon/12/阅读灰色" stroke="none" stroke-width="1" fill="none" fill-rule="evenodd">
        <g id="visible">
            <rect id="矩形" fill="#000000" fill-rule="nonzero" opacity="0" x="0" y="0" width="12" height="12"></rect>
            <path d="M6,1.71428571 C8.90385225,1.71428571 11.3396667,3.72245072 12,6.42857143 C11.3396534,9.13469214 8.90383886,11.1428571 6,11.1428571 C3.09613437,11.1428571 0.660319868,9.13469214 0,6.42857143 C0.660319868,3.72245072 3.09613437,1.71428571 6,1.71428571 Z M6,10.1771998 C8.33476835,10.1771998 10.3592246,8.62588458 11.0024269,6.42857143 C10.3592113,4.23125828 8.33476835,2.6799431 6,2.6799431 C3.66523165,2.6799431 1.64076197,4.23125828 0.997559724,6.42857143 C1.64077536,8.62588458 3.66523165,10.1771998 6,10.1771998 Z M5.99585109,8.67506604 C4.7540675,8.67506604 3.74740693,7.66627596 3.74740693,6.42186547 C3.74740693,5.17745499 4.7540675,4.16866491 5.99585109,4.16866491 C7.23763467,4.16866491 8.24429524,5.17745499 8.24429524,6.42186547 C8.24429524,7.66627596 7.23763467,8.67506604 5.99585109,8.67506604 Z M5.99585109,7.70940866 C6.70544935,7.70940866 7.28067632,7.13296484 7.28067632,6.42186547 C7.28067632,5.7107661 6.70544935,5.13432229 5.99585109,5.13432229 C5.28625282,5.13432229 4.71102585,5.7107661 4.71102585,6.42186547 C4.71102585,7.13296484 5.28625282,7.70940866 5.99585109,7.70940866 Z" id="形状" fill="#999999"></path>
        </g>
    </g>
</svg>