<?xml version="1.0" encoding="UTF-8"?>
<svg width="16px" height="16px" viewBox="0 0 16 16" version="1.1" xmlns="http://www.w3.org/2000/svg" xmlns:xlink="http://www.w3.org/1999/xlink">
    <!-- Generator: Sketch 48.2 (47327) - http://www.bohemiancoding.com/sketch -->
    <title>错误</title>
    <desc>Created with Sketch.</desc>
    <defs></defs>
    <g id="1-8考试详情答案解析" stroke="none" stroke-width="1" fill="none" fill-rule="evenodd" transform="translate(-16.000000, -347.000000)">
        <g id="错误" transform="translate(16.000000, 347.000000)">
            <circle id="Oval" fill="#F65E5E" cx="8" cy="8" r="8"></circle>
            <path d="M7.53928371,11.1828844 L7.53928371,8.34960518 L4.48372815,8.34960518 C4.23826827,8.34960518 4.03928371,8.15062062 4.03928371,7.90516073 C4.03928371,7.65970085 4.23826827,7.46071629 4.48372815,7.46071629 L7.53928371,7.46071629 L7.53928371,4.73854823 L7.53928371,4.40516073 C7.53928371,4.15970085 7.73826827,3.96071629 7.98372815,3.96071629 C8.22918804,3.96071629 8.4281726,4.15970085 8.4281726,4.40516073 L8.4281726,4.73854823 L8.4281726,7.46071629 L11.5948393,7.46071629 C11.8402992,7.46071629 12.0392837,7.65970085 12.0392837,7.90516073 C12.0392837,8.15062062 11.8402992,8.34960518 11.5948393,8.34960518 L8.4281726,8.34960518 L8.4281726,11.1828844 L8.4281726,11.5162718 C8.4281726,11.7617317 8.22918804,11.9607163 7.98372815,11.9607163 C7.73826827,11.9607163 7.53928371,11.7617317 7.53928371,11.5162718 L7.53928371,11.1828844 Z" id="Combined-Shape" fill="#FFFFFF" fill-rule="nonzero" transform="translate(8.039284, 7.960716) rotate(-45.000000) translate(-8.039284, -7.960716) "></path>
        </g>
    </g>
</svg>