<?xml version="1.0" encoding="UTF-8"?>
<svg width="12px" height="11px" viewBox="0 0 12 11" version="1.1" xmlns="http://www.w3.org/2000/svg" xmlns:xlink="http://www.w3.org/1999/xlink">
    <!-- Generator: Sketch 48.2 (47327) - http://www.bohemiancoding.com/sketch -->
    <title>Combined Shape</title>
    <desc>Created with Sketch.</desc>
    <defs></defs>
    <g id="1-17课程评价" stroke="none" stroke-width="1" fill="none" fill-rule="evenodd" transform="translate(-347.000000, -338.000000)">
        <g id="Group-7-Copy" transform="translate(346.000000, 337.000000)" fill="#7382FC" fill-rule="nonzero">
            <g id="Group-11" transform="translate(1.000000, 1.000000)">
                <path d="M0.999272727,0.000500452246 C0.46744461,-0.016180057 0.0212936746,0.386163188 0,0.901654298 L0,8.09396199 C0.0212936746,8.6094531 0.46744461,9.01179635 0.999272727,8.99511584 L1.49890909,8.99511584 C1.62874615,8.982978 1.75772866,9.02533037 1.85323935,9.11146285 C1.94875005,9.19759532 2.00164405,9.31926094 1.99854545,9.44569276 L1.99854545,10.211462 C1.99854545,10.706462 2.39781818,10.9306928 2.89963636,10.706462 L6,9.22569276 C6.29494832,9.08270637 6.61936157,9.00606099 6.94909091,9.00146199 L10.9985455,9.00146199 C11.5303736,9.0181425 11.9765245,8.61579925 11.9978182,8.10030814 L11.9978182,0.908000452 C11.9765245,0.392509342 11.5303736,-0.00983390314 10.9985455,0.00684660609 L0.999272727,0.000500452246 Z M9.23781818,4.01923077 L2.72727273,4.01923077 C2.4260265,4.01923077 2.18181818,3.78245828 2.18181818,3.49038462 C2.18181818,3.19831095 2.4260265,2.96153846 2.72727273,2.96153846 L9.24,2.96153846 C9.54124623,2.96153846 9.78545455,3.19831095 9.78545455,3.49038462 C9.78545455,3.78245828 9.54124623,4.01923077 9.24,4.01923077 L9.23781818,4.01923077 Z M9.23781818,6.55769231 L2.72727273,6.55769231 C2.4260265,6.55769231 2.18181818,6.32091982 2.18181818,6.02884615 C2.18181818,5.73677249 2.4260265,5.5 2.72727273,5.5 L9.24,5.5 C9.54124623,5.5 9.78545455,5.73677249 9.78545455,6.02884615 C9.78545455,6.32091982 9.54124623,6.55769231 9.24,6.55769231 L9.23781818,6.55769231 Z" id="Combined-Shape"></path>
            </g>
        </g>
    </g>
</svg>