<?xml version="1.0" encoding="UTF-8"?>
<svg width="32px" height="32px" viewBox="0 0 32 32" version="1.1" xmlns="http://www.w3.org/2000/svg" xmlns:xlink="http://www.w3.org/1999/xlink">
    <title>icon/24/分享/悬浮@2x</title>
   <path d="M10.0001215,3.75 C10.3884467,3.75 10.7032465,4.06479979 10.7032465,4.453125 C10.7032465,4.84145021 10.3884467,5.15625 10.0001215,5.15625 L10.0001215,5.15625 L3.68781888,5.15625 C3.44763762,5.15625 3.28125,5.30590323 3.28125,5.45121173 L3.28125,5.45121173 L3.28125,16.4238571 C3.28125,16.5691656 3.44763762,16.7188189 3.68781888,16.7188189 L3.68781888,16.7188189 L16.3122021,16.7188189 C16.5523834,16.7188189 16.718771,16.5691656 16.718771,16.4238571 L16.718771,16.4238571 L16.718771,10.6839118 C16.718771,10.2955865 17.0335708,9.98078676 17.421896,9.98078676 C17.8102212,9.98078676 18.124954,10.2955865 18.124954,10.6839118 L18.124954,10.6839118 L18.124954,16.4238571 C18.124954,17.3810048 17.2977549,18.1250689 16.3122021,18.1250689 L16.3122021,18.1250689 L3.68781888,18.1250689 C2.70226613,18.1250689 1.875,17.3810048 1.875,16.4238571 L1.875,16.4238571 L1.875,5.45121173 C1.875,4.49406407 2.70226613,3.75 3.68781888,3.75 L3.68781888,3.75 Z M13.8231935,2.08094054 C14.0977809,1.80635315 14.542975,1.80635315 14.8175624,2.08094054 L14.8175624,2.08094054 L17.8499533,5.11333154 C18.2010542,5.46415356 18.2010974,6.03316508 17.8501812,6.38408124 C17.8451774,6.38954393 17.8418326,6.39319552 17.8354522,6.3987432 L17.8354522,6.3987432 L14.8174533,9.41541773 C14.5428056,9.68994485 14.0976115,9.68984714 13.8230844,9.4151995 C13.5485573,9.14055185 13.548655,8.69535773 13.8233026,8.42083061 L13.8233026,8.42083061 L15.7784489,6.46473935 C13.5707985,6.54265666 11.9131711,7.05116558 10.7918439,7.96666483 C9.59719217,8.94202935 8.96529865,10.4194289 8.90595741,12.4553622 C8.89464372,12.8435226 8.57080601,13.1490172 8.18264564,13.1377035 C7.79448527,13.1263898 7.48899068,12.8025521 7.50030437,12.4143917 C7.57083842,9.99444523 8.36830181,8.12993485 9.90248861,6.87735944 C11.3027699,5.7341102 13.2751429,5.13546579 15.8053211,5.05685517 L13.8231935,3.07530946 C13.5486061,2.80072206 13.5486061,2.35552794 13.8231935,2.08094054 Z" id="形状结合" fill="#FFFFFF" fill-rule="nonzero"></path>
</svg>